0
SECTION
2
HEADER
9
$INSUNITS
70
4
9
$ACADVER
1
AC1014
9
$HANDSEED
5
FFFF
0
ENDSEC
0
SECTION
2
TABLES
0
TABLE
2
VPORT
5
8
100
AcDbSymbolTable
0
ENDTAB
0
TABLE
2
LTYPE
5
5
100
AcDbSymbolTable
0
LTYPE
5
14
100
AcDbSymbolTableRecord
100
AcDbLinetypeTableRecord
2
BYBLOCK
70
0
0
LTYPE
5
15
100
AcDbSymbolTableRecord
100
AcDbLinetypeTableRecord
2
BYLAYER
70
0
0
ENDTAB
0
TABLE
2
LAYER
5
2
100
AcDbSymbolTable
70
2
0
LAYER
5
50
100
AcDbSymbolTableRecord
100
AcDbLayerTableRecord
2
0
70
0
6
CONTINUOUS
0
ENDTAB
0
TABLE
2
STYLE
5
3
100
AcDbSymbolTable
70
1
0
STYLE
5
11
100
AcDbSymbolTableRecord
100
AcDbTextStyleTableRecord
2
STANDARD
70
0
0
ENDTAB
0
TABLE
2
VIEW
5
6
100
AcDbSymbolTable
70
0
0
ENDTAB
0
TABLE
2
UCS
5
7
100
AcDbSymbolTable
70
0
0
ENDTAB
0
TABLE
2
APPID
5
9
100
AcDbSymbolTable
70
2
0
APPID
5
12
100
AcDbSymbolTableRecord
100
AcDbRegAppTableRecord
2
ACAD
70
0
0
ENDTAB
0
TABLE
2
DIMSTYLE
5
A
100
AcDbSymbolTable
70
1
0
ENDTAB
0
TABLE
2
BLOCK_RECORD
5
1
100
AcDbSymbolTable
70
1
0
BLOCK_RECORD
5
1F
100
AcDbSymbolTableRecord
100
AcDbBlockTableRecord
2
*MODEL_SPACE
0
BLOCK_RECORD
5
1B
100
AcDbSymbolTableRecord
100
AcDbBlockTableRecord
2
*PAPER_SPACE
0
ENDTAB
0
ENDSEC
0
SECTION
2
BLOCKS
0
BLOCK
5
20
100
AcDbEntity
100
AcDbBlockBegin
2
*MODEL_SPACE
0
ENDBLK
5
21
100
AcDbEntity
100
AcDbBlockEnd
0
BLOCK
5
1C
100
AcDbEntity
100
AcDbBlockBegin
2
*PAPER_SPACE
0
ENDBLK
5
1D
100
AcDbEntity
100
AcDbBlockEnd
0
ENDSEC
0
SECTION
2
ENTITIES
0
LINE
5
100
100
AcDbEntity
8
0
100
AcDbLine
10
0
20
45.600000000000009
30
0
11
17.100000000000005
21
29.618068809427797
31
0
0
LINE
5
101
100
AcDbEntity
8
0
100
AcDbLine
10
0
20
228
30
0
11
14.934719244973964
21
214.55271839137271
31
0
0
LINE
5
102
100
AcDbEntity
8
0
100
AcDbLine
10
36.860000000000014
20
63.843392766988806
30
0
11
15.063987323166346
21
82.790377524234643
31
0
0
LINE
5
103
100
AcDbEntity
8
0
100
AcDbLine
10
14.848858171206707
20
140.0794375052308
30
0
11
63.105668352727797
21
168.58962927930818
31
0
0
LINE
5
104
100
AcDbEntity
8
0
100
AcDbLine
10
63.105668352727797
20
168.58962927930818
30
0
11
66.674526142122659
21
189.27380160282746
31
0
0
LINE
5
105
100
AcDbEntity
8
0
100
AcDbLine
10
66.674526142122659
20
189.27380160282746
30
0
11
46.619842219365985
21
196.96355081274515
31
0
0
LINE
5
106
100
AcDbEntity
8
0
100
AcDbLine
10
46.619842219365985
20
196.96355081274515
30
0
11
14.94555330620797
21
178.25033608046536
31
0
0
LINE
5
107
100
AcDbEntity
8
0
100
AcDbLine
10
14.94555330620797
20
178.25033608046536
30
0
11
14.934719244973964
21
214.55271839137271
31
0
0
LINE
5
108
100
AcDbEntity
8
0
100
AcDbLine
10
14.900999118726963
20
110.09408486539112
30
0
11
33.578361858358022
21
121.12869721415348
31
0
0
LINE
5
109
100
AcDbEntity
8
0
100
AcDbLine
10
33.578361858358022
20
121.12869721415348
30
0
11
46.360558701167271
21
117.04249225341687
31
0
0
LINE
5
110
100
AcDbEntity
8
0
100
AcDbLine
10
46.360558701167271
20
117.04249225341687
30
0
11
44.840228598267956
21
104.88007334415265
31
0
0
LINE
5
111
100
AcDbEntity
8
0
100
AcDbLine
10
44.840228598267956
20
104.88007334415265
30
0
11
15.063987323166348
21
87.288227843568137
31
0
0
LINE
5
112
100
AcDbEntity
8
0
100
AcDbLine
10
15.063987323166346
20
82.790377524234643
30
0
11
15.063987323166348
21
87.288227843568137
31
0
0
LINE
5
113
100
AcDbEntity
8
0
100
AcDbLine
10
14.848858171206707
20
140.0794375052308
30
0
11
14.900999118726963
21
110.09408486539112
31
0
0
LINE
5
114
100
AcDbEntity
8
0
100
AcDbLine
10
0
20
228
30
0
11
-14.934719244973937
21
214.55271839137276
31
0
0
LINE
5
115
100
AcDbEntity
8
0
100
AcDbLine
10
-46.619842219365957
20
196.96355081274518
30
0
11
-14.94555330620795
21
178.25033608046544
31
0
0
LINE
5
116
100
AcDbEntity
8
0
100
AcDbLine
10
-66.67452614212263
20
189.27380160282746
30
0
11
-46.619842219365957
21
196.96355081274518
31
0
0
LINE
5
117
100
AcDbEntity
8
0
100
AcDbLine
10
-63.105668352727768
20
168.58962927930827
30
0
11
-66.67452614212263
21
189.27380160282746
31
0
0
LINE
5
118
100
AcDbEntity
8
0
100
AcDbLine
10
-14.84885817120669
20
140.07943750523071
30
0
11
-63.105668352727768
21
168.58962927930827
31
0
0
LINE
5
119
100
AcDbEntity
8
0
100
AcDbLine
10
-14.84885817120669
20
140.07943750523071
30
0
11
-14.900999118726952
21
110.09408486539112
31
0
0
LINE
5
120
100
AcDbEntity
8
0
100
AcDbLine
10
-14.900999118726952
20
110.09408486539112
30
0
11
-33.578361858358015
21
121.12869721415339
31
0
0
LINE
5
121
100
AcDbEntity
8
0
100
AcDbLine
10
-33.578361858358015
20
121.12869721415339
30
0
11
-46.360558701167264
21
117.04249225341687
31
0
0
LINE
5
122
100
AcDbEntity
8
0
100
AcDbLine
10
-46.360558701167264
20
117.04249225341687
30
0
11
-44.840228598267949
21
104.88007334415265
31
0
0
LINE
5
123
100
AcDbEntity
8
0
100
AcDbLine
10
-44.840228598267949
20
104.88007334415265
30
0
11
-15.063987323166337
21
87.288227843568293
31
0
0
LINE
5
124
100
AcDbEntity
8
0
100
AcDbLine
10
-15.063987323166346
20
82.790377524234643
30
0
11
-15.063987323166337
21
87.288227843568293
31
0
0
LINE
5
125
100
AcDbEntity
8
0
100
AcDbLine
10
-36.860000000000014
20
63.843392766988806
30
0
11
-15.063987323166346
21
82.790377524234643
31
0
0
LINE
5
126
100
AcDbEntity
8
0
100
AcDbLine
10
0
20
45.600000000000009
30
0
11
-17.100000000000005
21
29.618068809427797
31
0
0
LINE
5
127
100
AcDbEntity
8
0
100
AcDbLine
10
-14.94555330620795
20
178.25033608046544
30
0
11
-14.934719244973937
21
214.55271839137276
31
0
0
LINE
5
128
100
AcDbEntity
8
0
100
AcDbLine
10
-200
20
0
30
0
11
-200
21
300
31
0
0
LINE
5
129
100
AcDbEntity
8
0
100
AcDbLine
10
0
20
0
30
0
11
-200
21
115.47005383792512
31
0
0
LINE
5
130
100
AcDbEntity
8
0
100
AcDbLine
10
0
20
0
30
0
11
230.9401076758503
21
0
31
0
0
CIRCLE
5
131
100
AcDbEntity
8
0
100
AcDbCircle
10
0
20
197.60000000000002
30
0
40
4
210
0
220
0
230
1
0
CIRCLE
5
132
100
AcDbEntity
8
0
100
AcDbCircle
10
39.095104717966215
20
173.46103976759656
30
0
40
4
210
0
220
0
230
1
0
CIRCLE
5
133
100
AcDbEntity
8
0
100
AcDbCircle
10
-39.095104717966215
20
173.46103976759656
30
0
40
4
210
0
220
0
230
1
0
CIRCLE
5
134
100
AcDbEntity
8
0
100
AcDbCircle
10
-26.979999999999983
20
46.730730788208312
30
0
40
4
210
0
220
0
230
1
0
CIRCLE
5
135
100
AcDbEntity
8
0
100
AcDbCircle
10
0
20
164.375
30
0
40
4
210
0
220
0
230
1
0
CIRCLE
5
136
100
AcDbEntity
8
0
100
AcDbCircle
10
0
20
131.15000000000003
30
0
40
4
210
0
220
0
230
1
0
CIRCLE
5
137
100
AcDbEntity
8
0
100
AcDbCircle
10
0
20
97.925000000000011
30
0
40
4
210
0
220
0
230
1
0
CIRCLE
5
138
100
AcDbEntity
8
0
100
AcDbCircle
10
0
20
64.700000000000003
30
0
40
4
210
0
220
0
230
1
0
LINE
5
139
100
AcDbEntity
8
0
100
AcDbLine
10
-102.79477385919208
20
42.142398654108497
30
0
11
-121.6897098439492
21
31.484634220272227
31
0
0
LINE
5
140
100
AcDbEntity
8
0
100
AcDbLine
10
-121.6897098439492
20
31.484634220272227
30
0
11
-124.54205096428602
21
18.371824557857899
31
0
0
LINE
5
141
100
AcDbEntity
8
0
100
AcDbLine
10
-79.23056378647459
20
28.34939305796853
30
0
11
-83.125816425437478
21
30.598318217635363
31
0
0
LINE
5
142
100
AcDbEntity
8
0
100
AcDbLine
10
-113.24892216594532
20
13.607259594474801
30
0
11
-83.125816425437478
21
30.598318217635363
31
0
0
LINE
5
143
100
AcDbEntity
8
0
100
AcDbLine
10
-73.719999999999999
20
-4.4408920985006262e-15
30
0
11
-79.23056378647459
21
28.34939305796853
31
0
0
CIRCLE
5
144
100
AcDbEntity
8
0
100
AcDbCircle
10
-53.959999999999994
20
2.2204460492503131e-14
30
0
40
4
210
0
220
-0
230
1
0
LINE
5
145
100
AcDbEntity
8
0
100
AcDbLine
10
-39.490758412570408
20
22.800000000000008
30
0
11
-34.200000000000003
21
-2.2204460492503131e-15
31
0
0
LINE
5
146
100
AcDbEntity
8
0
100
AcDbLine
10
-124.54205096428602
20
18.371824557857899
30
0
11
-113.24892216594532
21
13.607259594474801
31
0
0
LINE
5
147
100
AcDbEntity
8
0
100
AcDbLine
10
-161.84209593190099
20
76.181939203442155
30
0
11
-193.27546420042449
21
94.342512931150608
31
0
0
CIRCLE
5
148
100
AcDbEntity
8
0
100
AcDbCircle
10
-169.7692193645845
20
52.873166034426703
30
0
40
4
210
0
220
-0
230
1
0
LINE
5
149
100
AcDbEntity
8
0
100
AcDbLine
10
-177.55573594684563
20
29.64370272339621
30
0
11
-197.2531835299657
21
36.895067377045876
31
0
0
LINE
5
150
100
AcDbEntity
8
0
100
AcDbLine
10
-128.73678051296781
20
57.180230359158237
30
0
11
-102.79477385919208
21
42.142398654108497
31
0
0
LINE
5
151
100
AcDbEntity
8
0
100
AcDbLine
10
-147.26551751374143
20
138.85574308876585
30
0
11
-146.89654262569289
21
102.0683968770233
31
0
0
CIRCLE
5
152
100
AcDbEntity
8
0
100
AcDbCircle
10
-130.67411464661828
20
120.5878737331699
30
0
40
4
210
0
220
-0
230
1
0
LINE
5
153
100
AcDbEntity
8
0
100
AcDbLine
10
-146.89654262569289
20
102.0683968770233
30
0
11
-178.3407449554505
21
120.21020546022217
31
0
0
LINE
5
154
100
AcDbEntity
8
0
100
AcDbLine
10
-130.57865738784304
20
152.37873422578161
30
0
11
-147.26551751374143
21
138.85574308876585
31
0
0
LINE
5
155
100
AcDbEntity
8
0
100
AcDbLine
10
-114.45006759411777
20
138.94592655591208
30
0
11
-130.57865738784304
21
152.37873422578161
31
0
0
CIRCLE
5
156
100
AcDbEntity
8
0
100
AcDbCircle
10
-171.12661978780508
20
98.800000000000026
30
0
40
4
210
0
220
-0
230
1
0
CIRCLE
5
157
100
AcDbEntity
8
0
100
AcDbCircle
10
-142.3529257470671
20
82.187500000000014
30
0
40
4
210
0
220
-0
230
1
0
LINE
5
158
100
AcDbEntity
8
0
100
AcDbLine
10
-113.8879223417612
20
82.89920714607257
30
0
11
-114.45006759411777
21
138.94592655591208
31
0
0
LINE
5
159
100
AcDbEntity
8
0
100
AcDbLine
10
-197.45379206285202
20
114.00000000000003
30
0
11
-178.3407449554505
21
120.21020546022217
31
0
0
LINE
5
160
100
AcDbEntity
8
0
100
AcDbLine
10
-197.45379206285202
20
114.00000000000003
30
0
11
-193.27546420042449
21
94.342512931150608
31
0
0
LINE
5
161
100
AcDbEntity
8
0
100
AcDbLine
10
-113.8879223417612
20
82.89920714607257
30
0
11
-87.893774740465105
21
67.951686211282649
31
0
0
LINE
5
162
100
AcDbEntity
8
0
100
AcDbLine
10
-39.490758412570408
20
22.800000000000008
30
0
11
-17.099999999999991
21
29.618068809427804
31
0
0
CIRCLE
5
163
100
AcDbEntity
8
0
100
AcDbCircle
10
-84.805537665591146
20
48.962500000000013
30
0
40
4
210
0
220
-0
230
1
0
CIRCLE
5
164
100
AcDbEntity
8
0
100
AcDbCircle
10
-113.57923170632914
20
65.575000000000031
30
0
40
4
210
0
220
-0
230
1
0
LINE
5
165
100
AcDbEntity
8
0
100
AcDbLine
10
-87.893774740465105
20
67.951686211282649
30
0
11
-88.111347985591237
21
89.644062993881249
31
0
0
CIRCLE
5
166
100
AcDbEntity
8
0
100
AcDbCircle
10
-56.031843624853181
20
32.350000000000009
30
0
40
4
210
0
220
-0
230
1
0
LINE
5
167
100
AcDbEntity
8
0
100
AcDbLine
10
-88.111347985591237
20
89.644062993881249
30
0
11
-78.181492263118741
21
98.670667695559018
31
0
0
LINE
5
168
100
AcDbEntity
8
0
100
AcDbLine
10
-64.166576463308246
20
54.44098446626613
30
0
11
-68.061829102270991
21
56.689909625932877
31
0
0
LINE
5
169
100
AcDbEntity
8
0
100
AcDbLine
10
-78.181492263118741
20
98.670667695559018
30
0
11
-68.408693567677346
21
91.272813749677866
31
0
0
LINE
5
170
100
AcDbEntity
8
0
100
AcDbLine
10
-68.408693567677346
20
91.272813749677866
30
0
11
-68.061829102270991
21
56.689909625932877
31
0
0
LINE
5
171
100
AcDbEntity
8
0
100
AcDbLine
10
-36.859999999999985
20
63.843392766988828
30
0
11
-64.166576463308246
21
54.44098446626613
31
0
0
LINE
5
172
100
AcDbEntity
8
0
100
AcDbLine
10
-128.73678051296781
20
57.180230359158237
30
0
11
-177.55573594684563
21
29.64370272339621
31
0
0
LINE
5
173
100
AcDbEntity
8
0
100
AcDbLine
10
-197.2531835299657
20
36.895067377045876
30
0
11
-193.88535973310746
21
58.107807723979391
31
0
0
LINE
5
174
100
AcDbEntity
8
0
100
AcDbLine
10
-193.88535973310746
20
58.107807723979391
30
0
11
-161.84209593190099
21
76.181939203442155
31
0
0
LINE
5
175
100
AcDbEntity
8
0
100
AcDbLine
10
-87.893774740465147
20
-67.951686211282606
30
0
11
-88.111347985591223
21
-89.644062993881164
31
0
0
LINE
5
176
100
AcDbEntity
8
0
100
AcDbLine
10
-88.111347985591223
20
-89.644062993881164
30
0
11
-78.18149226311877
21
-98.670667695558976
31
0
0
LINE
5
177
100
AcDbEntity
8
0
100
AcDbLine
10
-64.16657646330826
20
-54.440984466266109
30
0
11
-68.061829102271162
21
-56.68990962593292
31
0
0
LINE
5
178
100
AcDbEntity
8
0
100
AcDbLine
10
-68.408693567677389
20
-91.272813749677823
30
0
11
-68.061829102271162
21
-56.68990962593292
31
0
0
LINE
5
179
100
AcDbEntity
8
0
100
AcDbLine
10
-36.859999999999999
20
-63.843392766988813
30
0
11
-64.16657646330826
21
-54.440984466266109
31
0
0
CIRCLE
5
180
100
AcDbEntity
8
0
100
AcDbCircle
10
-26.980000000000032
20
-46.730730788208291
30
0
40
4
210
0
220
0
230
1
0
LINE
5
181
100
AcDbEntity
8
0
100
AcDbLine
10
-39.490758412570415
20
-22.799999999999994
30
0
11
-17.100000000000001
21
-29.618068809427804
31
0
0
LINE
5
182
100
AcDbEntity
8
0
100
AcDbLine
10
-78.18149226311877
20
-98.670667695558976
30
0
11
-68.408693567677389
21
-91.272813749677823
31
0
0
LINE
5
183
100
AcDbEntity
8
0
100
AcDbLine
10
-146.89654262569303
20
-102.06839687702329
30
0
11
-178.34074495545059
21
-120.21020546022211
31
0
0
CIRCLE
5
184
100
AcDbEntity
8
0
100
AcDbCircle
10
-130.67411464661834
20
-120.58787373316986
30
0
40
4
210
0
220
0
230
1
0
LINE
5
185
100
AcDbEntity
8
0
100
AcDbLine
10
-114.45006759411791
20
-138.94592655591202
30
0
11
-130.57865738784312
21
-152.37873422578156
31
0
0
LINE
5
186
100
AcDbEntity
8
0
100
AcDbLine
10
-113.88792234176115
20
-82.899207146072456
30
0
11
-87.893774740465147
21
-67.951686211282606
31
0
0
LINE
5
187
100
AcDbEntity
8
0
100
AcDbLine
10
-193.88535973310746
20
-58.107807723979278
30
0
11
-161.8420959319009
21
-76.181939203442028
31
0
0
CIRCLE
5
188
100
AcDbEntity
8
0
100
AcDbCircle
10
-169.76921936458453
20
-52.873166034426646
30
0
40
4
210
0
220
0
230
1
0
LINE
5
189
100
AcDbEntity
8
0
100
AcDbLine
10
-161.8420959319009
20
-76.181939203442028
30
0
11
-193.27546420042455
21
-94.342512931150509
31
0
0
LINE
5
190
100
AcDbEntity
8
0
100
AcDbLine
10
-197.25318352996572
20
-36.895067377045791
30
0
11
-193.88535973310746
21
-58.107807723979278
31
0
0
LINE
5
191
100
AcDbEntity
8
0
100
AcDbLine
10
-177.55573594684563
20
-29.643702723396082
30
0
11
-197.25318352996572
21
-36.895067377045791
31
0
0
CIRCLE
5
192
100
AcDbEntity
8
0
100
AcDbCircle
10
-171.12661978780511
20
-98.799999999999969
30
0
40
4
210
0
220
0
230
1
0
CIRCLE
5
193
100
AcDbEntity
8
0
100
AcDbCircle
10
-142.35292574706713
20
-82.187499999999972
30
0
40
4
210
0
220
0
230
1
0
LINE
5
194
100
AcDbEntity
8
0
100
AcDbLine
10
-128.73678051296793
20
-57.180230359158216
30
0
11
-177.55573594684563
21
-29.643702723396082
31
0
0
LINE
5
195
100
AcDbEntity
8
0
100
AcDbLine
10
-197.45379206285207
20
-113.99999999999994
30
0
11
-193.27546420042455
21
-94.342512931150509
31
0
0
LINE
5
196
100
AcDbEntity
8
0
100
AcDbLine
10
-197.45379206285207
20
-113.99999999999994
30
0
11
-178.34074495545059
21
-120.21020546022211
31
0
0
LINE
5
197
100
AcDbEntity
8
0
100
AcDbLine
10
-128.73678051296793
20
-57.180230359158216
30
0
11
-102.79477385919209
21
-42.142398654108447
31
0
0
LINE
5
198
100
AcDbEntity
8
0
100
AcDbLine
10
-39.490758412570415
20
-22.799999999999994
30
0
11
-34.200000000000003
21
1.5543122344752192e-14
31
0
0
CIRCLE
5
199
100
AcDbEntity
8
0
100
AcDbCircle
10
-84.805537665591174
20
-48.962499999999984
30
0
40
4
210
0
220
0
230
1
0
CIRCLE
5
200
100
AcDbEntity
8
0
100
AcDbCircle
10
-113.57923170632917
20
-65.574999999999989
30
0
40
4
210
0
220
0
230
1
0
LINE
5
201
100
AcDbEntity
8
0
100
AcDbLine
10
-102.79477385919209
20
-42.142398654108447
30
0
11
-121.6897098439493
21
-31.484634220272202
31
0
0
CIRCLE
5
202
100
AcDbEntity
8
0
100
AcDbCircle
10
-56.031843624853195
20
-32.349999999999987
30
0
40
4
210
0
220
0
230
1
0
LINE
5
203
100
AcDbEntity
8
0
100
AcDbLine
10
-121.6897098439493
20
-31.484634220272202
30
0
11
-124.54205096428602
21
-18.371824557857845
31
0
0
LINE
5
204
100
AcDbEntity
8
0
100
AcDbLine
10
-79.230563786474605
20
-28.349393057968506
30
0
11
-83.12581642543735
21
-30.598318217635246
31
0
0
LINE
5
205
100
AcDbEntity
8
0
100
AcDbLine
10
-124.54205096428602
20
-18.371824557857845
30
0
11
-113.24892216594533
21
-13.607259594474748
31
0
0
LINE
5
206
100
AcDbEntity
8
0
100
AcDbLine
10
-113.24892216594533
20
-13.607259594474748
30
0
11
-83.12581642543735
21
-30.598318217635246
31
0
0
LINE
5
207
100
AcDbEntity
8
0
100
AcDbLine
10
-73.719999999999999
20
3.5527136788005009e-14
30
0
11
-79.230563786474605
21
-28.349393057968506
31
0
0
LINE
5
208
100
AcDbEntity
8
0
100
AcDbLine
10
-113.88792234176115
20
-82.899207146072456
30
0
11
-114.45006759411791
21
-138.94592655591202
31
0
0
LINE
5
209
100
AcDbEntity
8
0
100
AcDbLine
10
-130.57865738784312
20
-152.37873422578156
30
0
11
-147.26551751374154
21
-138.85574308876579
31
0
0
LINE
5
210
100
AcDbEntity
8
0
100
AcDbLine
10
-147.26551751374154
20
-138.85574308876579
30
0
11
-146.89654262569303
21
-102.06839687702329
31
0
0
LINE
5
211
100
AcDbEntity
8
0
100
AcDbLine
10
14.900999118726938
20
-110.09408486539112
30
0
11
33.578361858358001
21
-121.12869721415339
31
0
0
LINE
5
212
100
AcDbEntity
8
0
100
AcDbLine
10
33.578361858358001
20
-121.12869721415339
30
0
11
46.360558701167243
21
-117.04249225341687
31
0
0
LINE
5
213
100
AcDbEntity
8
0
100
AcDbLine
10
15.063987323166334
20
-82.790377524234643
30
0
11
15.063987323166327
21
-87.288227843568293
31
0
0
LINE
5
214
100
AcDbEntity
8
0
100
AcDbLine
10
44.840228598267942
20
-104.88007334415265
30
0
11
15.063987323166327
21
-87.288227843568293
31
0
0
LINE
5
215
100
AcDbEntity
8
0
100
AcDbLine
10
36.860000000000007
20
-63.843392766988813
30
0
11
15.063987323166334
21
-82.790377524234643
31
0
0
CIRCLE
5
216
100
AcDbEntity
8
0
100
AcDbCircle
10
26.979999999999976
20
-46.730730788208312
30
0
40
4
210
0
220
0
230
1
0
LINE
5
217
100
AcDbEntity
8
0
100
AcDbLine
10
-5.5843894041119313e-15
20
-45.600000000000009
30
0
11
17.100000000000001
21
-29.618068809427797
31
0
0
LINE
5
218
100
AcDbEntity
8
0
100
AcDbLine
10
46.360558701167243
20
-117.04249225341687
30
0
11
44.840228598267942
21
-104.88007334415265
31
0
0
LINE
5
219
100
AcDbEntity
8
0
100
AcDbLine
10
14.945553306207929
20
-178.25033608046544
30
0
11
14.934719244973911
21
-214.55271839137276
31
0
0
CIRCLE
5
220
100
AcDbEntity
8
0
100
AcDbCircle
10
39.095104717966194
20
-173.46103976759656
30
0
40
4
210
0
220
0
230
1
0
LINE
5
221
100
AcDbEntity
8
0
100
AcDbLine
10
63.105668352727747
20
-168.58962927930827
30
0
11
66.674526142122602
21
-189.27380160282746
31
0
0
LINE
5
222
100
AcDbEntity
8
0
100
AcDbLine
10
14.848858171206672
20
-140.07943750523071
30
0
11
14.900999118726938
21
-110.09408486539112
31
0
0
LINE
5
223
100
AcDbEntity
8
0
100
AcDbLine
10
-46.619842219366006
20
-196.96355081274515
30
0
11
-14.945553306207993
21
-178.25033608046536
31
0
0
CIRCLE
5
224
100
AcDbEntity
8
0
100
AcDbCircle
10
-39.095104717966237
20
-173.46103976759656
30
0
40
4
210
0
220
0
230
1
0
LINE
5
225
100
AcDbEntity
8
0
100
AcDbLine
10
-14.945553306207993
20
-178.25033608046536
30
0
11
-14.934719244973991
21
-214.55271839137271
31
0
0
LINE
5
226
100
AcDbEntity
8
0
100
AcDbLine
10
-66.674526142122687
20
-189.27380160282746
30
0
11
-46.619842219366006
21
-196.96355081274515
31
0
0
LINE
5
227
100
AcDbEntity
8
0
100
AcDbLine
10
-63.105668352727811
20
-168.58962927930818
30
0
11
-66.674526142122687
21
-189.27380160282746
31
0
0
CIRCLE
5
228
100
AcDbEntity
8
0
100
AcDbCircle
10
-2.4199020751151704e-14
20
-197.60000000000002
30
0
40
4
210
0
220
0
230
1
0
CIRCLE
5
229
100
AcDbEntity
8
0
100
AcDbCircle
10
-2.0130131760984618e-14
20
-164.375
30
0
40
4
210
0
220
0
230
1
0
LINE
5
230
100
AcDbEntity
8
0
100
AcDbLine
10
-14.848858171206725
20
-140.0794375052308
30
0
11
-63.105668352727811
21
-168.58962927930818
31
0
0
LINE
5
231
100
AcDbEntity
8
0
100
AcDbLine
10
-2.7921947020559652e-14
20
-228
30
0
11
-14.934719244973991
21
-214.55271839137271
31
0
0
LINE
5
232
100
AcDbEntity
8
0
100
AcDbLine
10
-2.7921947020559652e-14
20
-228
30
0
11
14.934719244973911
21
-214.55271839137276
31
0
0
LINE
5
233
100
AcDbEntity
8
0
100
AcDbLine
10
-14.848858171206725
20
-140.0794375052308
30
0
11
-14.900999118726975
21
-110.09408486539112
31
0
0
LINE
5
234
100
AcDbEntity
8
0
100
AcDbLine
10
-5.5843894041119313e-15
20
-45.600000000000009
30
0
11
-17.100000000000009
21
-29.618068809427797
31
0
0
CIRCLE
5
235
100
AcDbEntity
8
0
100
AcDbCircle
10
-1.1992353780650457e-14
20
-97.925000000000011
30
0
40
4
210
0
220
0
230
1
0
CIRCLE
5
236
100
AcDbEntity
8
0
100
AcDbCircle
10
-1.6061242770817539e-14
20
-131.15000000000003
30
0
40
4
210
0
220
0
230
1
0
LINE
5
237
100
AcDbEntity
8
0
100
AcDbLine
10
-14.900999118726975
20
-110.09408486539112
30
0
11
-33.578361858358036
21
-121.12869721415348
31
0
0
CIRCLE
5
238
100
AcDbEntity
8
0
100
AcDbCircle
10
-7.9234647904833764e-15
20
-64.700000000000003
30
0
40
4
210
0
220
0
230
1
0
LINE
5
239
100
AcDbEntity
8
0
100
AcDbLine
10
-33.578361858358036
20
-121.12869721415348
30
0
11
-46.360558701167285
21
-117.04249225341687
31
0
0
LINE
5
240
100
AcDbEntity
8
0
100
AcDbLine
10
-15.063987323166357
20
-82.790377524234643
30
0
11
-15.063987323166359
21
-87.288227843568137
31
0
0
LINE
5
241
100
AcDbEntity
8
0
100
AcDbLine
10
-46.360558701167285
20
-117.04249225341687
30
0
11
-44.84022859826797
21
-104.88007334415265
31
0
0
LINE
5
242
100
AcDbEntity
8
0
100
AcDbLine
10
-44.84022859826797
20
-104.88007334415265
30
0
11
-15.063987323166359
21
-87.288227843568137
31
0
0
LINE
5
243
100
AcDbEntity
8
0
100
AcDbLine
10
-36.860000000000021
20
-63.843392766988799
30
0
11
-15.063987323166357
21
-82.790377524234643
31
0
0
LINE
5
244
100
AcDbEntity
8
0
100
AcDbLine
10
14.848858171206672
20
-140.07943750523071
30
0
11
63.105668352727747
21
-168.58962927930827
31
0
0
LINE
5
245
100
AcDbEntity
8
0
100
AcDbLine
10
66.674526142122602
20
-189.27380160282746
30
0
11
46.619842219365928
21
-196.96355081274518
31
0
0
LINE
5
246
100
AcDbEntity
8
0
100
AcDbLine
10
46.619842219365928
20
-196.96355081274518
30
0
11
14.945553306207929
21
-178.25033608046544
31
0
0
LINE
5
247
100
AcDbEntity
8
0
100
AcDbLine
10
102.79477385919206
20
-42.142398654108561
30
0
11
121.6897098439492
21
-31.484634220272287
31
0
0
LINE
5
248
100
AcDbEntity
8
0
100
AcDbLine
10
121.6897098439492
20
-31.484634220272287
30
0
11
124.54205096428602
21
-18.371824557857977
31
0
0
LINE
5
249
100
AcDbEntity
8
0
100
AcDbLine
10
79.23056378647459
20
-28.34939305796858
30
0
11
83.125816425437478
21
-30.598318217635416
31
0
0
LINE
5
250
100
AcDbEntity
8
0
100
AcDbLine
10
113.24892216594533
20
-13.607259594474868
30
0
11
83.125816425437478
21
-30.598318217635416
31
0
0
LINE
5
251
100
AcDbEntity
8
0
100
AcDbLine
10
73.720000000000013
20
-3.1086244689504383e-14
30
0
11
79.23056378647459
21
-28.34939305796858
31
0
0
CIRCLE
5
252
100
AcDbEntity
8
0
100
AcDbCircle
10
53.960000000000008
20
-5.3290705182007514e-14
30
0
40
4.0000000000000018
210
0
220
0
230
1
0
LINE
5
253
100
AcDbEntity
8
0
100
AcDbLine
10
39.490758412570401
20
-22.800000000000033
30
0
11
34.200000000000003
21
-1.7763568394002505e-14
31
0
0
LINE
5
254
100
AcDbEntity
8
0
100
AcDbLine
10
124.54205096428602
20
-18.371824557857977
30
0
11
113.24892216594533
21
-13.607259594474868
31
0
0
LINE
5
255
100
AcDbEntity
8
0
100
AcDbLine
10
161.84209593190093
20
-76.181939203442269
30
0
11
193.27546420042449
21
-94.342512931150736
31
0
0
CIRCLE
5
256
100
AcDbEntity
8
0
100
AcDbCircle
10
169.7692193645845
20
-52.873166034426816
30
0
40
4.0000000000000018
210
0
220
0
230
1
0
LINE
5
257
100
AcDbEntity
8
0
100
AcDbLine
10
177.55573594684566
20
-29.643702723396306
30
0
11
197.2531835299657
21
-36.89506737704599
31
0
0
LINE
5
258
100
AcDbEntity
8
0
100
AcDbLine
10
128.73678051296778
20
-57.180230359158315
30
0
11
102.79477385919206
21
-42.142398654108561
31
0
0
LINE
5
259
100
AcDbEntity
8
0
100
AcDbLine
10
147.26551751374134
20
-138.85574308876593
30
0
11
146.89654262569289
21
-102.06839687702342
31
0
0
CIRCLE
5
260
100
AcDbEntity
8
0
100
AcDbCircle
10
130.67411464661825
20
-120.58787373317001
30
0
40
4.0000000000000018
210
0
220
0
230
1
0
LINE
5
261
100
AcDbEntity
8
0
100
AcDbLine
10
146.89654262569289
20
-102.06839687702342
30
0
11
178.3407449554505
21
-120.2102054602223
31
0
0
LINE
5
262
100
AcDbEntity
8
0
100
AcDbLine
10
130.57865738784298
20
-152.37873422578173
30
0
11
147.26551751374134
21
-138.85574308876593
31
0
0
LINE
5
263
100
AcDbEntity
8
0
100
AcDbLine
10
114.45006759411771
20
-138.94592655591214
30
0
11
130.57865738784298
21
-152.37873422578173
31
0
0
CIRCLE
5
264
100
AcDbEntity
8
0
100
AcDbCircle
10
171.12661978780505
20
-98.800000000000125
30
0
40
4.0000000000000018
210
0
220
0
230
1
0
CIRCLE
5
265
100
AcDbEntity
8
0
100
AcDbCircle
10
142.35292574706708
20
-82.187500000000114
30
0
40
4.0000000000000018
210
0
220
0
230
1
0
LINE
5
266
100
AcDbEntity
8
0
100
AcDbLine
10
113.88792234176115
20
-82.899207146072641
30
0
11
114.45006759411771
21
-138.94592655591214
31
0
0
LINE
5
267
100
AcDbEntity
8
0
100
AcDbLine
10
197.45379206285196
20
-114.00000000000017
30
0
11
178.3407449554505
21
-120.2102054602223
31
0
0
LINE
5
268
100
AcDbEntity
8
0
100
AcDbLine
10
197.45379206285196
20
-114.00000000000017
30
0
11
193.27546420042449
21
-94.342512931150736
31
0
0
LINE
5
269
100
AcDbEntity
8
0
100
AcDbLine
10
113.88792234176115
20
-82.899207146072641
30
0
11
87.893774740465091
21
-67.951686211282706
31
0
0
LINE
5
270
100
AcDbEntity
8
0
100
AcDbLine
10
39.490758412570401
20
-22.800000000000033
30
0
11
17.099999999999977
21
-29.618068809427818
31
0
0
CIRCLE
5
271
100
AcDbEntity
8
0
100
AcDbCircle
10
84.805537665591132
20
-48.962500000000063
30
0
40
4.0000000000000018
210
0
220
0
230
1
0
CIRCLE
5
272
100
AcDbEntity
8
0
100
AcDbCircle
10
113.57923170632913
20
-65.575000000000102
30
0
40
4.0000000000000018
210
0
220
0
230
1
0
LINE
5
273
100
AcDbEntity
8
0
100
AcDbLine
10
87.893774740465091
20
-67.951686211282706
30
0
11
88.111347985591209
21
-89.644062993881306
31
0
0
CIRCLE
5
274
100
AcDbEntity
8
0
100
AcDbCircle
10
56.031843624853181
20
-32.350000000000051
30
0
40
4.0000000000000018
210
0
220
0
230
1
0
LINE
5
275
100
AcDbEntity
8
0
100
AcDbLine
10
88.111347985591209
20
-89.644062993881306
30
0
11
78.181492263118699
21
-98.670667695559061
31
0
0
LINE
5
276
100
AcDbEntity
8
0
100
AcDbLine
10
64.166576463308218
20
-54.440984466266173
30
0
11
68.061829102270977
21
-56.689909625932927
31
0
0
LINE
5
277
100
AcDbEntity
8
0
100
AcDbLine
10
78.181492263118699
20
-98.670667695559061
30
0
11
68.408693567677318
21
-91.272813749677937
31
0
0
LINE
5
278
100
AcDbEntity
8
0
100
AcDbLine
10
68.408693567677318
20
-91.272813749677937
30
0
11
68.061829102270977
21
-56.689909625932927
31
0
0
LINE
5
279
100
AcDbEntity
8
0
100
AcDbLine
10
36.85999999999995
20
-63.84339276698887
30
0
11
64.166576463308218
21
-54.440984466266173
31
0
0
LINE
5
280
100
AcDbEntity
8
0
100
AcDbLine
10
128.73678051296778
20
-57.180230359158315
30
0
11
177.55573594684566
21
-29.643702723396306
31
0
0
LINE
5
281
100
AcDbEntity
8
0
100
AcDbLine
10
197.2531835299657
20
-36.89506737704599
30
0
11
193.88535973310741
21
-58.107807723979505
31
0
0
LINE
5
282
100
AcDbEntity
8
0
100
AcDbLine
10
193.88535973310741
20
-58.107807723979505
30
0
11
161.84209593190093
21
-76.181939203442269
31
0
0
LINE
5
283
100
AcDbEntity
8
0
100
AcDbLine
10
87.893774740465176
20
67.951686211282563
30
0
11
88.111347985591266
21
89.644062993881136
31
0
0
LINE
5
284
100
AcDbEntity
8
0
100
AcDbLine
10
88.111347985591266
20
89.644062993881136
30
0
11
78.181492263118827
21
98.670667695558919
31
0
0
LINE
5
285
100
AcDbEntity
8
0
100
AcDbLine
10
64.166576463308289
20
54.44098446626608
30
0
11
68.06182910227119
21
56.689909625932877
31
0
0
LINE
5
286
100
AcDbEntity
8
0
100
AcDbLine
10
68.408693567677432
20
91.272813749677809
30
0
11
68.06182910227119
21
56.689909625932877
31
0
0
LINE
5
287
100
AcDbEntity
8
0
100
AcDbLine
10
36.860000000000035
20
63.843392766988799
30
0
11
64.166576463308289
21
54.44098446626608
31
0
0
CIRCLE
5
288
100
AcDbEntity
8
0
100
AcDbCircle
10
26.980000000000047
20
46.730730788208277
30
0
40
4
210
-0
220
0
230
1
0
LINE
5
289
100
AcDbEntity
8
0
100
AcDbLine
10
39.490758412570422
20
22.799999999999972
30
0
11
17.100000000000016
21
29.618068809427793
31
0
0
LINE
5
290
100
AcDbEntity
8
0
100
AcDbLine
10
78.181492263118827
20
98.670667695558919
30
0
11
68.408693567677432
21
91.272813749677809
31
0
0
LINE
5
291
100
AcDbEntity
8
0
100
AcDbLine
10
146.89654262569309
20
102.0683968770232
30
0
11
178.34074495545067
21
120.21020546022201
31
0
0
CIRCLE
5
292
100
AcDbEntity
8
0
100
AcDbCircle
10
130.67411464661836
20
120.58787373316977
30
0
40
4
210
-0
220
0
230
1
0
LINE
5
293
100
AcDbEntity
8
0
100
AcDbLine
10
114.45006759411797
20
138.945926555912
30
0
11
130.57865738784318
21
152.3787342257815
31
0
0
LINE
5
294
100
AcDbEntity
8
0
100
AcDbLine
10
113.8879223417612
20
82.899207146072399
30
0
11
87.893774740465176
21
67.951686211282563
31
0
0
LINE
5
295
100
AcDbEntity
8
0
100
AcDbLine
10
193.88535973310746
20
58.107807723979185
30
0
11
161.84209593190093
21
76.181939203441942
31
0
0
CIRCLE
5
296
100
AcDbEntity
8
0
100
AcDbCircle
10
169.76921936458453
20
52.873166034426546
30
0
40
4
210
-0
220
0
230
1
0
LINE
5
297
100
AcDbEntity
8
0
100
AcDbLine
10
161.84209593190093
20
76.181939203441942
30
0
11
193.27546420042455
21
94.342512931150409
31
0
0
LINE
5
298
100
AcDbEntity
8
0
100
AcDbLine
10
197.25318352996572
20
36.895067377045685
30
0
11
193.88535973310746
21
58.107807723979185
31
0
0
LINE
5
299
100
AcDbEntity
8
0
100
AcDbLine
10
177.55573594684563
20
29.643702723396004
30
0
11
197.25318352996572
21
36.895067377045685
31
0
0
CIRCLE
5
300
100
AcDbEntity
8
0
100
AcDbCircle
10
171.12661978780517
20
98.799999999999883
30
0
40
4
210
-0
220
0
230
1
0
CIRCLE
5
301
100
AcDbEntity
8
0
100
AcDbCircle
10
142.35292574706716
20
82.187499999999886
30
0
40
4
210
-0
220
0
230
1
0
LINE
5
302
100
AcDbEntity
8
0
100
AcDbLine
10
128.73678051296795
20
57.180230359158145
30
0
11
177.55573594684563
21
29.643702723396004
31
0
0
LINE
5
303
100
AcDbEntity
8
0
100
AcDbLine
10
197.4537920628521
20
113.99999999999984
30
0
11
193.27546420042455
21
94.342512931150409
31
0
0
LINE
5
304
100
AcDbEntity
8
0
100
AcDbLine
10
197.4537920628521
20
113.99999999999984
30
0
11
178.34074495545067
21
120.21020546022201
31
0
0
LINE
5
305
100
AcDbEntity
8
0
100
AcDbLine
10
128.73678051296795
20
57.180230359158145
30
0
11
102.79477385919211
21
42.142398654108398
31
0
0
LINE
5
306
100
AcDbEntity
8
0
100
AcDbLine
10
39.490758412570422
20
22.799999999999972
30
0
11
34.200000000000003
21
-3.3306690738754696e-14
31
0
0
CIRCLE
5
307
100
AcDbEntity
8
0
100
AcDbCircle
10
84.805537665591189
20
48.962499999999942
30
0
40
4
210
-0
220
0
230
1
0
CIRCLE
5
308
100
AcDbEntity
8
0
100
AcDbCircle
10
113.57923170632918
20
65.574999999999918
30
0
40
4
210
-0
220
0
230
1
0
LINE
5
309
100
AcDbEntity
8
0
100
AcDbLine
10
102.79477385919211
20
42.142398654108398
30
0
11
121.6897098439493
21
31.484634220272142
31
0
0
CIRCLE
5
310
100
AcDbEntity
8
0
100
AcDbCircle
10
56.031843624853217
20
32.349999999999959
30
0
40
4
210
-0
220
0
230
1
0
LINE
5
311
100
AcDbEntity
8
0
100
AcDbLine
10
121.6897098439493
20
31.484634220272142
30
0
11
124.54205096428603
21
18.371824557857785
31
0
0
LINE
5
312
100
AcDbEntity
8
0
100
AcDbLine
10
79.230563786474619
20
28.349393057968463
30
0
11
83.125816425437364
21
30.598318217635196
31
0
0
LINE
5
313
100
AcDbEntity
8
0
100
AcDbLine
10
124.54205096428603
20
18.371824557857785
30
0
11
113.24892216594533
21
13.607259594474694
31
0
0
LINE
5
314
100
AcDbEntity
8
0
100
AcDbLine
10
113.24892216594533
20
13.607259594474694
30
0
11
83.125816425437364
21
30.598318217635196
31
0
0
LINE
5
315
100
AcDbEntity
8
0
100
AcDbLine
10
73.719999999999999
20
-7.5495165674510645e-14
30
0
11
79.230563786474619
21
28.349393057968463
31
0
0
LINE
5
316
100
AcDbEntity
8
0
100
AcDbLine
10
113.8879223417612
20
82.899207146072399
30
0
11
114.45006759411797
21
138.945926555912
31
0
0
LINE
5
317
100
AcDbEntity
8
0
100
AcDbLine
10
130.57865738784318
20
152.3787342257815
30
0
11
147.26551751374157
21
138.85574308876571
31
0
0
LINE
5
318
100
AcDbEntity
8
0
100
AcDbLine
10
147.26551751374157
20
138.85574308876571
30
0
11
146.89654262569309
21
102.0683968770232
31
0
0
LINE
5
319
100
AcDbEntity
8
0
100
AcDbLine
10
2.8284271247461907
20
194.77157287525384
30
0
11
-2.8284271247461863
21
200.42842712474621
31
0
0
LINE
5
320
100
AcDbEntity
8
0
100
AcDbLine
10
2.8284271247461938
20
200.42842712474621
30
0
11
-2.8284271247461885
21
194.77157287525384
31
0
0
LINE
5
321
100
AcDbEntity
8
0
100
AcDbLine
10
2.8284271247461907
20
161.54657287525382
30
0
11
-2.8284271247461863
21
167.20342712474618
31
0
0
LINE
5
322
100
AcDbEntity
8
0
100
AcDbLine
10
2.8284271247461938
20
167.20342712474618
30
0
11
-2.8284271247461885
21
161.54657287525382
31
0
0
LINE
5
323
100
AcDbEntity
8
0
100
AcDbLine
10
2.8284271247461907
20
128.32157287525382
30
0
11
-2.8284271247461863
21
133.97842712474619
31
0
0
LINE
5
324
100
AcDbEntity
8
0
100
AcDbLine
10
2.8284271247461938
20
133.97842712474619
30
0
11
-2.8284271247461885
21
128.32157287525382
31
0
0
LINE
5
325
100
AcDbEntity
8
0
100
AcDbLine
10
2.8284271247461907
20
95.096572875253827
30
0
11
-2.8284271247461863
21
100.7534271247462
31
0
0
LINE
5
326
100
AcDbEntity
8
0
100
AcDbLine
10
2.8284271247461938
20
100.7534271247462
30
0
11
-2.8284271247461885
21
95.096572875253827
31
0
0
LINE
5
327
100
AcDbEntity
8
0
100
AcDbLine
10
2.8284271247461907
20
61.871572875253818
30
0
11
-2.8284271247461863
21
67.528427124746187
31
0
0
LINE
5
328
100
AcDbEntity
8
0
100
AcDbLine
10
2.8284271247461938
20
67.528427124746187
30
0
11
-2.8284271247461885
21
61.871572875253818
31
0
0
LINE
5
329
100
AcDbEntity
8
0
100
AcDbLine
10
41.923531842712322
20
170.63261264285046
30
0
11
36.266677593220095
21
176.28946689234269
31
0
0
LINE
5
330
100
AcDbEntity
8
0
100
AcDbLine
10
41.9235318427124
20
176.28946689234269
30
0
11
36.26667759322001
21
170.63261264285043
31
0
0
LINE
5
331
100
AcDbEntity
8
0
100
AcDbLine
10
-36.266677593220116
20
170.63261264285046
30
0
11
-41.923531842712293
21
176.28946689234272
31
0
0
LINE
5
332
100
AcDbEntity
8
0
100
AcDbLine
10
-36.266677593220074
20
176.28946689234277
30
0
11
-41.923531842712364
21
170.6326126428504
31
0
0
LINE
5
333
100
AcDbEntity
8
0
100
AcDbLine
10
-24.151572875253883
20
43.90230366346222
30
0
11
-29.808427124746075
21
49.559157912954404
31
0
0
LINE
5
334
100
AcDbEntity
8
0
100
AcDbLine
10
-24.151572875253819
20
49.559157912954454
30
0
11
-29.808427124746153
21
43.902303663462177
31
0
0
LINE
5
335
100
AcDbEntity
8
0
100
AcDbLine
10
-80.941834360434882
20
49.997776180410092
30
0
11
-88.669240970747424
21
47.927223819589926
31
0
0
LINE
5
336
100
AcDbEntity
8
0
100
AcDbLine
10
-85.84081384600124
20
52.826203305156284
30
0
11
-83.770261485181067
21
45.098796694843742
31
0
0
LINE
5
337
100
AcDbEntity
8
0
100
AcDbLine
10
-143.38820192747718
20
86.051203305156292
30
0
11
-141.31764956665702
21
78.32379669484375
31
0
0
LINE
5
338
100
AcDbEntity
8
0
100
AcDbLine
10
-57.067119805263253
20
36.213703305156287
30
0
11
-54.996567444443102
21
28.486296694843745
31
0
0
LINE
5
339
100
AcDbEntity
8
0
100
AcDbLine
10
-167.26291648264879
20
99.835276180410105
30
0
11
-174.99032309296132
21
97.764723819589946
31
0
0
LINE
5
340
100
AcDbEntity
8
0
100
AcDbLine
10
-131.7093908270283
20
124.45157703832614
30
0
11
-129.63883846620826
21
116.72417042801364
31
0
0
LINE
5
341
100
AcDbEntity
8
0
100
AcDbLine
10
-165.90551605942835
20
53.908442214836747
30
0
11
-173.63292266974068
21
51.837889854016694
31
0
0
LINE
5
342
100
AcDbEntity
8
0
100
AcDbLine
10
-126.81041134146211
20
121.62314991357995
30
0
11
-134.53781795177446
21
119.55259755275983
31
0
0
LINE
5
343
100
AcDbEntity
8
0
100
AcDbLine
10
-138.48922244191084
20
83.222776180410108
30
0
11
-146.21662905222337
21
81.152223819589935
31
0
0
LINE
5
344
100
AcDbEntity
8
0
100
AcDbLine
10
-172.16189596821516
20
102.66370330515629
30
0
11
-170.09134360739498
21
94.936296694843762
31
0
0
LINE
5
345
100
AcDbEntity
8
0
100
AcDbLine
10
-50.096296694843844
20
1.0352761804100741
30
0
11
-57.82370330515613
21
-1.0352761804100208
31
0
0
LINE
5
346
100
AcDbEntity
8
0
100
AcDbLine
10
-114.61450788673922
20
69.438703305156309
30
0
11
-112.54395552591905
21
61.71129669484376
31
0
0
LINE
5
347
100
AcDbEntity
8
0
100
AcDbLine
10
-109.71552840117286
20
66.610276180410111
30
0
11
-117.4429350114854
21
64.539723819589938
31
0
0
LINE
5
348
100
AcDbEntity
8
0
100
AcDbLine
10
-54.995276180410045
20
3.8637033051562453
30
0
11
-52.92472381958995
21
-3.8637033051562053
31
0
0
LINE
5
349
100
AcDbEntity
8
0
100
AcDbLine
10
-52.168140319696917
20
33.385276180410102
30
0
11
-59.895546930009445
21
31.314723819589929
31
0
0
LINE
5
350
100
AcDbEntity
8
0
100
AcDbLine
10
-170.80449554499461
20
56.736869339582931
30
0
11
-168.73394318417439
21
49.009462729270474
31
0
0
LINE
5
351
100
AcDbEntity
8
0
100
AcDbLine
10
-83.770261485181095
20
-45.098796694843713
30
0
11
-85.840813846001254
21
-52.826203305156241
31
0
0
LINE
5
352
100
AcDbEntity
8
0
100
AcDbLine
10
-88.669240970747438
20
-47.927223819589884
30
0
11
-80.94183436043491
21
-49.997776180410071
31
0
0
LINE
5
353
100
AcDbEntity
8
0
100
AcDbLine
10
-146.2166290522234
20
-81.152223819589878
30
0
11
-138.48922244191087
21
-83.222776180410051
31
0
0
LINE
5
354
100
AcDbEntity
8
0
100
AcDbLine
10
-59.895546930009466
20
-31.314723819589901
30
0
11
-52.168140319696931
21
-33.385276180410074
31
0
0
LINE
5
355
100
AcDbEntity
8
0
100
AcDbLine
10
-170.09134360739506
20
-94.936296694843705
30
0
11
-172.16189596821522
21
-102.66370330515622
31
0
0
LINE
5
356
100
AcDbEntity
8
0
100
AcDbLine
10
-173.63292266974074
20
-51.837889854016524
30
0
11
-165.90551605942829
21
-53.908442214836754
31
0
0
LINE
5
357
100
AcDbEntity
8
0
100
AcDbLine
10
-129.63883846620826
20
-116.72417042801371
30
0
11
-131.70939082702841
21
-124.45157703832601
31
0
0
LINE
5
358
100
AcDbEntity
8
0
100
AcDbLine
10
-168.73394318417445
20
-49.009462729270481
30
0
11
-170.80449554499461
21
-56.73686933958281
31
0
0
LINE
5
359
100
AcDbEntity
8
0
100
AcDbLine
10
-141.31764956665705
20
-78.323796694843693
30
0
11
-143.38820192747721
21
-86.051203305156236
31
0
0
LINE
5
360
100
AcDbEntity
8
0
100
AcDbLine
10
-174.9903230929614
20
-97.764723819589875
30
0
11
-167.26291648264888
21
-99.835276180410062
31
0
0
LINE
5
361
100
AcDbEntity
8
0
100
AcDbLine
10
-25.944723819589978
20
-42.867027483052141
30
0
11
-28.015276180410076
21
-50.594434093364441
31
0
0
LINE
5
362
100
AcDbEntity
8
0
100
AcDbLine
10
-117.44293501148545
20
-64.539723819589895
30
0
11
-109.7155284011729
21
-66.610276180410068
31
0
0
LINE
5
363
100
AcDbEntity
8
0
100
AcDbLine
10
-112.54395552591909
20
-61.711296694843718
30
0
11
-114.61450788673926
21
-69.438703305156253
31
0
0
LINE
5
364
100
AcDbEntity
8
0
100
AcDbLine
10
-30.843703305156239
20
-45.695454607798212
30
0
11
-23.116296694843818
21
-47.766006968618385
31
0
0
LINE
5
365
100
AcDbEntity
8
0
100
AcDbLine
10
-54.996567444443116
20
-28.486296694843716
30
0
11
-57.067119805263282
21
-36.213703305156258
31
0
0
LINE
5
366
100
AcDbEntity
8
0
100
AcDbLine
10
-134.53781795177457
20
-119.55259755275982
30
0
11
-126.81041134146207
21
-121.62314991357991
31
0
0
LINE
5
367
100
AcDbEntity
8
0
100
AcDbLine
10
-2.8284271247462023
20
-95.096572875253827
30
0
11
2.8284271247461739
21
-100.7534271247462
31
0
0
LINE
5
368
100
AcDbEntity
8
0
100
AcDbLine
10
-2.8284271247462063
20
-100.7534271247462
30
0
11
2.8284271247461765
21
-95.096572875253827
31
0
0
LINE
5
369
100
AcDbEntity
8
0
100
AcDbLine
10
-2.8284271247462147
20
-167.20342712474618
30
0
11
2.8284271247461685
21
-161.54657287525382
31
0
0
LINE
5
370
100
AcDbEntity
8
0
100
AcDbLine
10
-2.8284271247462023
20
-67.528427124746187
30
0
11
2.8284271247461805
21
-61.871572875253818
31
0
0
LINE
5
371
100
AcDbEntity
8
0
100
AcDbLine
10
-2.8284271247462147
20
-194.77157287525384
30
0
11
2.8284271247461619
21
-200.42842712474621
31
0
0
LINE
5
372
100
AcDbEntity
8
0
100
AcDbLine
10
-41.923531842712414
20
-176.28946689234269
30
0
11
-36.266677593220031
21
-170.63261264285043
31
0
0
LINE
5
373
100
AcDbEntity
8
0
100
AcDbLine
10
36.266677593220095
20
-170.63261264285046
30
0
11
41.923531842712272
21
-176.28946689234272
31
0
0
LINE
5
374
100
AcDbEntity
8
0
100
AcDbLine
10
-41.923531842712336
20
-170.63261264285046
30
0
11
-36.266677593220116
21
-176.28946689234269
31
0
0
LINE
5
375
100
AcDbEntity
8
0
100
AcDbLine
10
-2.8284271247462107
20
-161.54657287525382
30
0
11
2.8284271247461659
21
-167.20342712474618
31
0
0
LINE
5
376
100
AcDbEntity
8
0
100
AcDbLine
10
-2.8284271247462183
20
-200.42842712474621
30
0
11
2.8284271247461645
21
-194.77157287525384
31
0
0
LINE
5
377
100
AcDbEntity
8
0
100
AcDbLine
10
24.151572875253876
20
-43.90230366346222
30
0
11
29.808427124746068
21
-49.559157912954404
31
0
0
LINE
5
378
100
AcDbEntity
8
0
100
AcDbLine
10
-2.8284271247462107
20
-133.97842712474619
30
0
11
2.828427124746173
21
-128.32157287525382
31
0
0
LINE
5
379
100
AcDbEntity
8
0
100
AcDbLine
10
-2.8284271247462063
20
-128.32157287525382
30
0
11
2.8284271247461694
21
-133.97842712474619
31
0
0
LINE
5
380
100
AcDbEntity
8
0
100
AcDbLine
10
24.151572875253816
20
-49.559157912954454
30
0
11
29.808427124746149
21
-43.902303663462177
31
0
0
LINE
5
381
100
AcDbEntity
8
0
100
AcDbLine
10
-2.8284271247461983
20
-61.871572875253818
30
0
11
2.8284271247461779
21
-67.528427124746187
31
0
0
LINE
5
382
100
AcDbEntity
8
0
100
AcDbLine
10
36.266677593220052
20
-176.28946689234277
30
0
11
41.923531842712343
21
-170.6326126428504
31
0
0
LINE
5
383
100
AcDbEntity
8
0
100
AcDbLine
10
80.941834360434882
20
-49.997776180410149
30
0
11
88.66924097074741
21
-47.92722381958999
31
0
0
LINE
5
384
100
AcDbEntity
8
0
100
AcDbLine
10
85.840813846001225
20
-52.826203305156348
30
0
11
83.770261485181067
21
-45.098796694843799
31
0
0
LINE
5
385
100
AcDbEntity
8
0
100
AcDbLine
10
143.38820192747716
20
-86.051203305156378
30
0
11
141.317649566657
21
-78.323796694843836
31
0
0
LINE
5
386
100
AcDbEntity
8
0
100
AcDbLine
10
57.067119805263246
20
-36.213703305156322
30
0
11
54.996567444443095
21
-28.486296694843777
31
0
0
LINE
5
387
100
AcDbEntity
8
0
100
AcDbLine
10
167.26291648264879
20
-99.835276180410219
30
0
11
174.99032309296132
21
-97.764723819590074
31
0
0
LINE
5
388
100
AcDbEntity
8
0
100
AcDbLine
10
131.70939082702824
20
-124.45157703832623
30
0
11
129.6388384662082
21
-116.72417042801372
31
0
0
LINE
5
389
100
AcDbEntity
8
0
100
AcDbLine
10
165.90551605942835
20
-53.908442214836839
30
0
11
173.63292266974068
21
-51.837889854016808
31
0
0
LINE
5
390
100
AcDbEntity
8
0
100
AcDbLine
10
126.81041134146207
20
-121.62314991358004
30
0
11
134.5378179517744
21
-119.55259755275995
31
0
0
LINE
5
391
100
AcDbEntity
8
0
100
AcDbLine
10
138.48922244191081
20
-83.222776180410193
30
0
11
146.21662905222334
21
-81.15222381959002
31
0
0
LINE
5
392
100
AcDbEntity
8
0
100
AcDbLine
10
172.16189596821516
20
-102.66370330515642
30
0
11
170.09134360739498
21
-94.936296694843861
31
0
0
LINE
5
393
100
AcDbEntity
8
0
100
AcDbLine
10
50.096296694843858
20
-1.0352761804101052
30
0
11
57.823703305156151
21
1.0352761804099897
31
0
0
LINE
5
394
100
AcDbEntity
8
0
100
AcDbLine
10
114.6145078867392
20
-69.43870330515638
30
0
11
112.54395552591905
21
-61.711296694843831
31
0
0
LINE
5
395
100
AcDbEntity
8
0
100
AcDbLine
10
109.71552840117286
20
-66.610276180410182
30
0
11
117.44293501148539
21
-64.539723819590023
31
0
0
LINE
5
396
100
AcDbEntity
8
0
100
AcDbLine
10
54.995276180410059
20
-3.8637033051562764
30
0
11
52.924723819589957
21
3.8637033051561742
31
0
0
LINE
5
397
100
AcDbEntity
8
0
100
AcDbLine
10
52.168140319696903
20
-33.385276180410131
30
0
11
59.895546930009438
21
-31.314723819589965
31
0
0
LINE
5
398
100
AcDbEntity
8
0
100
AcDbLine
10
170.80449554499461
20
-56.736869339583045
30
0
11
168.73394318417439
21
-49.009462729270567
31
0
0
LINE
5
399
100
AcDbEntity
8
0
100
AcDbLine
10
83.770261485181123
20
45.098796694843664
30
0
11
85.840813846001268
21
52.826203305156199
31
0
0
LINE
5
400
100
AcDbEntity
8
0
100
AcDbLine
10
88.669240970747452
20
47.927223819589841
30
0
11
80.941834360434939
21
49.997776180410021
31
0
0
LINE
5
401
100
AcDbEntity
8
0
100
AcDbLine
10
146.21662905222342
20
81.152223819589807
30
0
11
138.4892224419109
21
83.22277618040998
31
0
0
LINE
5
402
100
AcDbEntity
8
0
100
AcDbLine
10
59.89554693000948
20
31.314723819589865
30
0
11
52.168140319696946
21
33.385276180410052
31
0
0
LINE
5
403
100
AcDbEntity
8
0
100
AcDbLine
10
170.09134360739509
20
94.93629669484362
30
0
11
172.16189596821525
21
102.66370330515613
31
0
0
LINE
5
404
100
AcDbEntity
8
0
100
AcDbLine
10
173.63292266974074
20
51.837889854016424
30
0
11
165.90551605942829
21
53.908442214836683
31
0
0
LINE
5
405
100
AcDbEntity
8
0
100
AcDbLine
10
129.63883846620831
20
116.72417042801364
30
0
11
131.7093908270285
21
124.45157703832594
31
0
0
LINE
5
406
100
AcDbEntity
8
0
100
AcDbLine
10
168.73394318417445
20
49.009462729270403
30
0
11
170.80449554499461
21
56.736869339582725
31
0
0
LINE
5
407
100
AcDbEntity
8
0
100
AcDbLine
10
141.31764956665708
20
78.323796694843622
30
0
11
143.38820192747727
21
86.051203305156164
31
0
0
LINE
5
408
100
AcDbEntity
8
0
100
AcDbLine
10
174.99032309296143
20
97.76472381958979
30
0
11
167.2629164826489
21
99.835276180409963
31
0
0
LINE
5
409
100
AcDbEntity
8
0
100
AcDbLine
10
25.944723819590003
20
42.867027483052127
30
0
11
28.015276180410105
21
50.59443409336442
31
0
0
LINE
5
410
100
AcDbEntity
8
0
100
AcDbLine
10
117.44293501148546
20
64.539723819589824
30
0
11
109.71552840117295
21
66.610276180410011
31
0
0
LINE
5
411
100
AcDbEntity
8
0
100
AcDbLine
10
112.54395552591913
20
61.711296694843654
30
0
11
114.61450788673928
21
69.438703305156196
31
0
0
LINE
5
412
100
AcDbEntity
8
0
100
AcDbLine
10
30.843703305156261
20
45.695454607798197
30
0
11
23.116296694843832
21
47.766006968618377
31
0
0
LINE
5
413
100
AcDbEntity
8
0
100
AcDbLine
10
54.99656744444313
20
28.486296694843691
30
0
11
57.067119805263296
21
36.21370330515623
31
0
0
LINE
5
414
100
AcDbEntity
8
0
100
AcDbLine
10
134.5378179517746
20
119.55259755275974
30
0
11
126.81041134146213
21
121.62314991357985
31
0
0
ENDSEC
0
SECTION
2
OBJECTS
0
DICTIONARY
5
C
100
AcDbDictionary
3
ACAD_GROUP
350
D
3
ACAD_MLINESTYLE
350
17
0
DICTIONARY
5
D
100
AcDbDictionary
0
DICTIONARY
5
1A
330
C
100
AcDbDictionary
0
DICTIONARY
5
17
100
AcDbDictionary
0
ENDSEC
0
EOF
