0
SECTION
2
HEADER
9
$INSUNITS
70
4
9
$ACADVER
1
AC1014
9
$HANDSEED
5
FFFF
0
ENDSEC
0
SECTION
2
TABLES
0
TABLE
2
VPORT
5
8
100
AcDbSymbolTable
0
ENDTAB
0
TABLE
2
LTYPE
5
5
100
AcDbSymbolTable
0
LTYPE
5
14
100
AcDbSymbolTableRecord
100
AcDbLinetypeTableRecord
2
BYBLOCK
70
0
0
LTYPE
5
15
100
AcDbSymbolTableRecord
100
AcDbLinetypeTableRecord
2
BYLAYER
70
0
0
ENDTAB
0
TABLE
2
LAYER
5
2
100
AcDbSymbolTable
70
2
0
LAYER
5
50
100
AcDbSymbolTableRecord
100
AcDbLayerTableRecord
2
0
70
0
6
CONTINUOUS
0
ENDTAB
0
TABLE
2
STYLE
5
3
100
AcDbSymbolTable
70
1
0
STYLE
5
11
100
AcDbSymbolTableRecord
100
AcDbTextStyleTableRecord
2
STANDARD
70
0
0
ENDTAB
0
TABLE
2
VIEW
5
6
100
AcDbSymbolTable
70
0
0
ENDTAB
0
TABLE
2
UCS
5
7
100
AcDbSymbolTable
70
0
0
ENDTAB
0
TABLE
2
APPID
5
9
100
AcDbSymbolTable
70
2
0
APPID
5
12
100
AcDbSymbolTableRecord
100
AcDbRegAppTableRecord
2
ACAD
70
0
0
ENDTAB
0
TABLE
2
DIMSTYLE
5
A
100
AcDbSymbolTable
70
1
0
ENDTAB
0
TABLE
2
BLOCK_RECORD
5
1
100
AcDbSymbolTable
70
1
0
BLOCK_RECORD
5
1F
100
AcDbSymbolTableRecord
100
AcDbBlockTableRecord
2
*MODEL_SPACE
0
BLOCK_RECORD
5
1B
100
AcDbSymbolTableRecord
100
AcDbBlockTableRecord
2
*PAPER_SPACE
0
ENDTAB
0
ENDSEC
0
SECTION
2
BLOCKS
0
BLOCK
5
20
100
AcDbEntity
100
AcDbBlockBegin
2
*MODEL_SPACE
0
ENDBLK
5
21
100
AcDbEntity
100
AcDbBlockEnd
0
BLOCK
5
1C
100
AcDbEntity
100
AcDbBlockBegin
2
*PAPER_SPACE
0
ENDBLK
5
1D
100
AcDbEntity
100
AcDbBlockEnd
0
ENDSEC
0
SECTION
2
ENTITIES
0
LINE
5
100
100
AcDbEntity
8
0
100
AcDbLine
10
0
20
60
30
0
11
22.500000000000004
21
38.971143170299733
31
0
0
LINE
5
101
100
AcDbEntity
8
0
100
AcDbLine
10
0
20
300
30
0
11
19.650946374965741
21
282.30620840970096
31
0
0
LINE
5
102
100
AcDbEntity
8
0
100
AcDbLine
10
48.500000000000014
20
84.004464167090532
30
0
11
19.821035951534665
21
108.9347072687298
31
0
0
LINE
5
103
100
AcDbEntity
8
0
100
AcDbLine
10
19.537971277903562
20
184.31504934898788
30
0
11
83.033774148326046
21
221.8284595780371
31
0
0
LINE
5
104
100
AcDbEntity
8
0
100
AcDbLine
10
83.033774148326046
20
221.8284595780371
30
0
11
87.72963966068771
21
249.04447579319398
31
0
0
LINE
5
105
100
AcDbEntity
8
0
100
AcDbLine
10
87.72963966068771
20
249.04447579319398
30
0
11
61.341897657060507
21
259.16256685887515
31
0
0
LINE
5
106
100
AcDbEntity
8
0
100
AcDbLine
10
61.341897657060507
20
259.16256685887515
30
0
11
19.665201718694696
21
234.53991589534917
31
0
0
LINE
5
107
100
AcDbEntity
8
0
100
AcDbLine
10
19.665201718694696
20
234.53991589534917
30
0
11
19.650946374965741
21
282.30620840970096
31
0
0
LINE
5
108
100
AcDbEntity
8
0
100
AcDbLine
10
19.606577787798635
20
144.86063798077777
30
0
11
44.182055076786867
21
159.37986475546509
31
0
0
LINE
5
109
100
AcDbEntity
8
0
100
AcDbLine
10
44.182055076786867
20
159.37986475546509
30
0
11
61.00073513311483
21
154.00327928081168
31
0
0
LINE
5
110
100
AcDbEntity
8
0
100
AcDbLine
10
61.00073513311483
20
154.00327928081168
30
0
11
59.000300787194682
21
138.000096505464
31
0
0
LINE
5
111
100
AcDbEntity
8
0
100
AcDbLine
10
59.000300787194682
20
138.000096505464
30
0
11
19.821035951534668
21
114.85293137311595
31
0
0
LINE
5
112
100
AcDbEntity
8
0
100
AcDbLine
10
19.821035951534665
20
108.9347072687298
30
0
11
19.821035951534668
21
114.85293137311595
31
0
0
LINE
5
113
100
AcDbEntity
8
0
100
AcDbLine
10
19.537971277903562
20
184.31504934898788
30
0
11
19.606577787798635
21
144.86063798077777
31
0
0
LINE
5
114
100
AcDbEntity
8
0
100
AcDbLine
10
0
20
300
30
0
11
-19.650946374965706
21
282.30620840970096
31
0
0
LINE
5
115
100
AcDbEntity
8
0
100
AcDbLine
10
-61.341897657060471
20
259.16256685887527
30
0
11
-19.665201718694671
21
234.53991589534928
31
0
0
LINE
5
116
100
AcDbEntity
8
0
100
AcDbLine
10
-87.729639660687667
20
249.04447579319398
30
0
11
-61.341897657060471
21
259.16256685887527
31
0
0
LINE
5
117
100
AcDbEntity
8
0
100
AcDbLine
10
-83.033774148326017
20
221.82845957803718
30
0
11
-87.729639660687667
21
249.04447579319398
31
0
0
LINE
5
118
100
AcDbEntity
8
0
100
AcDbLine
10
-19.537971277903537
20
184.31504934898777
30
0
11
-83.033774148326017
21
221.82845957803718
31
0
0
LINE
5
119
100
AcDbEntity
8
0
100
AcDbLine
10
-19.537971277903537
20
184.31504934898777
30
0
11
-19.606577787798621
21
144.86063798077777
31
0
0
LINE
5
120
100
AcDbEntity
8
0
100
AcDbLine
10
-19.606577787798621
20
144.86063798077777
30
0
11
-44.18205507678686
21
159.37986475546501
31
0
0
LINE
5
121
100
AcDbEntity
8
0
100
AcDbLine
10
-44.18205507678686
20
159.37986475546501
30
0
11
-61.000735133114816
21
154.00327928081165
31
0
0
LINE
5
122
100
AcDbEntity
8
0
100
AcDbLine
10
-61.000735133114816
20
154.00327928081165
30
0
11
-59.000300787194668
21
138.000096505464
31
0
0
LINE
5
123
100
AcDbEntity
8
0
100
AcDbLine
10
-59.000300787194668
20
138.000096505464
30
0
11
-19.821035951534654
21
114.85293137311618
31
0
0
LINE
5
124
100
AcDbEntity
8
0
100
AcDbLine
10
-19.821035951534665
20
108.9347072687298
30
0
11
-19.821035951534654
21
114.85293137311618
31
0
0
LINE
5
125
100
AcDbEntity
8
0
100
AcDbLine
10
-48.500000000000014
20
84.004464167090532
30
0
11
-19.821035951534665
21
108.9347072687298
31
0
0
LINE
5
126
100
AcDbEntity
8
0
100
AcDbLine
10
0
20
60
30
0
11
-22.500000000000004
21
38.971143170299733
31
0
0
LINE
5
127
100
AcDbEntity
8
0
100
AcDbLine
10
-19.665201718694671
20
234.53991589534928
30
0
11
-19.650946374965706
21
282.30620840970096
31
0
0
LINE
5
128
100
AcDbEntity
8
0
100
AcDbLine
10
-259.80762113533154
20
150.00000000000003
30
0
11
-254.30982131634801
21
124.13488543572441
31
0
0
LINE
5
129
100
AcDbEntity
8
0
100
AcDbLine
10
-259.80762113533154
20
150.00000000000003
30
0
11
-234.65887494138227
21
158.17132297397654
31
0
0
LINE
5
130
100
AcDbEntity
8
0
100
AcDbLine
10
-193.2849245074907
20
134.30052220660963
30
0
11
-234.65887494138227
21
158.17132297397654
31
0
0
LINE
5
131
100
AcDbEntity
8
0
100
AcDbLine
10
-193.77041778123879
20
182.70492511679723
30
0
11
-193.2849245074907
21
134.30052220660963
31
0
0
LINE
5
132
100
AcDbEntity
8
0
100
AcDbLine
10
-171.8140228787409
20
200.49833450760755
30
0
11
-193.77041778123879
21
182.70492511679723
31
0
0
LINE
5
133
100
AcDbEntity
8
0
100
AcDbLine
10
-150.59219420278657
20
182.82358757356855
30
0
11
-171.8140228787409
21
200.49833450760755
31
0
0
LINE
5
134
100
AcDbEntity
8
0
100
AcDbLine
10
-149.85252939705421
20
109.07790413956904
30
0
11
-150.59219420278657
21
182.82358757356855
31
0
0
LINE
5
135
100
AcDbEntity
8
0
100
AcDbLine
10
-149.85252939705421
20
109.07790413956904
30
0
11
-115.64970360587522
21
89.410113435898239
31
0
0
LINE
5
136
100
AcDbEntity
8
0
100
AcDbLine
10
-212.950126226186
20
100.23939368873977
30
0
11
-254.30982131634801
21
124.13488543572441
31
0
0
LINE
5
137
100
AcDbEntity
8
0
100
AcDbLine
10
-255.11231543829922
20
76.45764174207811
30
0
11
-212.950126226186
21
100.23939368873977
31
0
0
LINE
5
138
100
AcDbEntity
8
0
100
AcDbLine
10
-259.54366253942851
20
48.546141285586664
30
0
11
-255.11231543829922
21
76.45764174207811
31
0
0
LINE
5
139
100
AcDbEntity
8
0
100
AcDbLine
10
-233.62596835111259
20
39.004872004468638
30
0
11
-259.54366253942851
21
48.546141285586664
31
0
0
LINE
5
140
100
AcDbEntity
8
0
100
AcDbLine
10
-169.39050067495771
20
75.237145209418784
30
0
11
-233.62596835111259
21
39.004872004468638
31
0
0
LINE
5
141
100
AcDbEntity
8
0
100
AcDbLine
10
-169.39050067495771
20
75.237145209418784
30
0
11
-135.25628139367382
21
55.450524544879798
31
0
0
LINE
5
142
100
AcDbEntity
8
0
100
AcDbLine
10
-135.25628139367382
20
55.450524544879798
30
0
11
-160.11803926835429
21
41.427150289831907
31
0
0
LINE
5
143
100
AcDbEntity
8
0
100
AcDbLine
10
-160.11803926835429
20
41.427150289831907
30
0
11
-163.87111968985005
21
24.173453365602523
31
0
0
LINE
5
144
100
AcDbEntity
8
0
100
AcDbLine
10
-163.87111968985005
20
24.173453365602523
30
0
11
-149.0117396920333
21
17.904288940098361
31
0
0
LINE
5
145
100
AcDbEntity
8
0
100
AcDbLine
10
-149.0117396920333
20
17.904288940098361
30
0
11
-109.37607424399664
21
40.260945023204414
31
0
0
LINE
5
146
100
AcDbEntity
8
0
100
AcDbLine
10
-104.25074182430869
20
37.301832971011223
30
0
11
-109.37607424399664
21
40.260945023204414
31
0
0
LINE
5
147
100
AcDbEntity
8
0
100
AcDbLine
10
-97
20
-8.8817841970012523e-15
30
0
11
-104.25074182430869
21
37.301832971011223
31
0
0
LINE
5
148
100
AcDbEntity
8
0
100
AcDbLine
10
-84.429705872774008
20
71.632874297718587
30
0
11
-89.555038292461887
21
74.591986349911707
31
0
0
LINE
5
149
100
AcDbEntity
8
0
100
AcDbLine
10
-90.011438904838585
20
120.09580756536563
30
0
11
-89.555038292461887
21
74.591986349911707
31
0
0
LINE
5
150
100
AcDbEntity
8
0
100
AcDbLine
10
-115.64970360587522
20
89.410113435898239
30
0
11
-115.93598419156733
21
117.95271446563331
31
0
0
LINE
5
151
100
AcDbEntity
8
0
100
AcDbLine
10
-115.93598419156733
20
117.95271446563331
30
0
11
-102.87038455673517
21
129.8298259152092
31
0
0
LINE
5
152
100
AcDbEntity
8
0
100
AcDbLine
10
-102.87038455673517
20
129.8298259152092
30
0
11
-90.011438904838585
21
120.09580756536563
31
0
0
LINE
5
153
100
AcDbEntity
8
0
100
AcDbLine
10
-48.499999999999979
20
84.004464167090561
30
0
11
-84.429705872774008
21
71.632874297718587
31
0
0
LINE
5
154
100
AcDbEntity
8
0
100
AcDbLine
10
-51.96152422706632
20
30.000000000000007
30
0
11
-22.499999999999993
21
38.971143170299747
31
0
0
LINE
5
155
100
AcDbEntity
8
0
100
AcDbLine
10
-51.96152422706632
20
30.000000000000007
30
0
11
-45
21
0
31
0
0
LINE
5
156
100
AcDbEntity
8
0
100
AcDbLine
10
-259.80762113533166
20
-149.99999999999994
30
0
11
-234.65887494138227
21
-158.17132297397643
31
0
0
LINE
5
157
100
AcDbEntity
8
0
100
AcDbLine
10
-259.80762113533166
20
-149.99999999999994
30
0
11
-254.30982131634804
21
-124.13488543572436
31
0
0
LINE
5
158
100
AcDbEntity
8
0
100
AcDbLine
10
-212.95012622618546
20
-100.23939368873953
30
0
11
-254.30982131634804
21
-124.13488543572436
31
0
0
LINE
5
159
100
AcDbEntity
8
0
100
AcDbLine
10
-255.11231543829933
20
-76.457641742078081
30
0
11
-212.95012622618546
21
-100.23939368873953
31
0
0
LINE
5
160
100
AcDbEntity
8
0
100
AcDbLine
10
-259.54366253942874
20
-48.546141285586558
30
0
11
-255.11231543829933
21
-76.457641742078081
31
0
0
LINE
5
161
100
AcDbEntity
8
0
100
AcDbLine
10
-233.62596835111287
20
-39.004872004468446
30
0
11
-259.54366253942874
21
-48.546141285586558
31
0
0
LINE
5
162
100
AcDbEntity
8
0
100
AcDbLine
10
-169.39050067495771
20
-75.237145209418813
30
0
11
-233.62596835111287
21
-39.004872004468446
31
0
0
LINE
5
163
100
AcDbEntity
8
0
100
AcDbLine
10
-169.39050067495771
20
-75.237145209418813
30
0
11
-135.2562813936737
21
-55.450524544879521
31
0
0
LINE
5
164
100
AcDbEntity
8
0
100
AcDbLine
10
-193.28492450749116
20
-134.30052220661
30
0
11
-234.65887494138227
21
-158.17132297397643
31
0
0
LINE
5
165
100
AcDbEntity
8
0
100
AcDbLine
10
-193.77041778123879
20
-182.70492511679706
30
0
11
-193.28492450749116
21
-134.30052220661
31
0
0
LINE
5
166
100
AcDbEntity
8
0
100
AcDbLine
10
-171.81402287874084
20
-200.49833450760727
30
0
11
-193.77041778123879
21
-182.70492511679706
31
0
0
LINE
5
167
100
AcDbEntity
8
0
100
AcDbLine
10
-150.59219420278669
20
-182.82358757356837
30
0
11
-171.81402287874084
21
-200.49833450760727
31
0
0
LINE
5
168
100
AcDbEntity
8
0
100
AcDbLine
10
-149.85252939705424
20
-109.07790413956906
30
0
11
-150.59219420278669
21
-182.82358757356837
31
0
0
LINE
5
169
100
AcDbEntity
8
0
100
AcDbLine
10
-149.85252939705424
20
-109.07790413956906
30
0
11
-115.64970360587522
21
-89.410113435898197
31
0
0
LINE
5
170
100
AcDbEntity
8
0
100
AcDbLine
10
-115.64970360587522
20
-89.410113435898197
30
0
11
-115.93598419156747
21
-117.95271446563318
31
0
0
LINE
5
171
100
AcDbEntity
8
0
100
AcDbLine
10
-115.93598419156747
20
-117.95271446563318
30
0
11
-102.87038455673525
21
-129.82982591520917
31
0
0
LINE
5
172
100
AcDbEntity
8
0
100
AcDbLine
10
-102.87038455673525
20
-129.82982591520917
30
0
11
-90.011438904838656
21
-120.09580756536558
31
0
0
LINE
5
173
100
AcDbEntity
8
0
100
AcDbLine
10
-90.011438904838656
20
-120.09580756536558
30
0
11
-89.555038292462044
21
-74.591986349911721
31
0
0
LINE
5
174
100
AcDbEntity
8
0
100
AcDbLine
10
-84.429705872774036
20
-71.632874297718558
30
0
11
-89.555038292462044
21
-74.591986349911721
31
0
0
LINE
5
175
100
AcDbEntity
8
0
100
AcDbLine
10
-48.500000000000007
20
-84.004464167090561
30
0
11
-84.429705872774036
21
-71.632874297718558
31
0
0
LINE
5
176
100
AcDbEntity
8
0
100
AcDbLine
10
-104.25074182430869
20
-37.301832971011194
30
0
11
-109.37607424399664
21
-40.260945023204336
31
0
0
LINE
5
177
100
AcDbEntity
8
0
100
AcDbLine
10
-149.01173969203319
20
-17.90428894009834
30
0
11
-109.37607424399664
21
-40.260945023204336
31
0
0
LINE
5
178
100
AcDbEntity
8
0
100
AcDbLine
10
-135.2562813936737
20
-55.450524544879521
30
0
11
-160.11803926835429
21
-41.427150289831729
31
0
0
LINE
5
179
100
AcDbEntity
8
0
100
AcDbLine
10
-160.11803926835429
20
-41.427150289831729
30
0
11
-163.87111968984999
21
-24.173453365602427
31
0
0
LINE
5
180
100
AcDbEntity
8
0
100
AcDbLine
10
-163.87111968984999
20
-24.173453365602427
30
0
11
-149.01173969203319
21
-17.90428894009834
31
0
0
LINE
5
181
100
AcDbEntity
8
0
100
AcDbLine
10
-97
20
4.4408920985006262e-14
30
0
11
-104.25074182430869
21
-37.301832971011194
31
0
0
LINE
5
182
100
AcDbEntity
8
0
100
AcDbLine
10
-51.961524227066327
20
-29.999999999999986
30
0
11
-45
21
1.7763568394002505e-14
31
0
0
LINE
5
183
100
AcDbEntity
8
0
100
AcDbLine
10
-51.961524227066327
20
-29.999999999999986
30
0
11
-22.500000000000007
21
-38.971143170299733
31
0
0
LINE
5
184
100
AcDbEntity
8
0
100
AcDbLine
10
-3.6739403974420601e-14
20
-300
30
0
11
19.650946374965713
21
-282.30620840970084
31
0
0
LINE
5
185
100
AcDbEntity
8
0
100
AcDbLine
10
-3.6739403974420601e-14
20
-300
30
0
11
-19.65094637496577
21
-282.30620840970096
31
0
0
LINE
5
186
100
AcDbEntity
8
0
100
AcDbLine
10
-19.665201718694721
20
-234.53991589534905
30
0
11
-19.65094637496577
21
-282.30620840970096
31
0
0
LINE
5
187
100
AcDbEntity
8
0
100
AcDbLine
10
-61.341897657060514
20
-259.16256685887527
30
0
11
-19.665201718694721
21
-234.53991589534905
31
0
0
LINE
5
188
100
AcDbEntity
8
0
100
AcDbLine
10
-87.729639660687809
20
-249.04447579319418
30
0
11
-61.341897657060514
21
-259.16256685887527
31
0
0
LINE
5
189
100
AcDbEntity
8
0
100
AcDbLine
10
-83.033774148326074
20
-221.82845957803715
30
0
11
-87.729639660687809
21
-249.04447579319418
31
0
0
LINE
5
190
100
AcDbEntity
8
0
100
AcDbLine
10
-19.537971277903448
20
-184.31504934898786
30
0
11
-83.033774148326074
21
-221.82845957803715
31
0
0
LINE
5
191
100
AcDbEntity
8
0
100
AcDbLine
10
-19.537971277903448
20
-184.31504934898786
30
0
11
-19.606577787798653
21
-144.86063798077788
31
0
0
LINE
5
192
100
AcDbEntity
8
0
100
AcDbLine
10
19.665201718694881
20
-234.53991589534954
30
0
11
19.650946374965713
21
-282.30620840970084
31
0
0
LINE
5
193
100
AcDbEntity
8
0
100
AcDbLine
10
61.341897657060457
20
-259.16256685887521
30
0
11
19.665201718694881
21
-234.53991589534954
31
0
0
LINE
5
194
100
AcDbEntity
8
0
100
AcDbLine
10
87.729639660687639
20
-249.04447579319398
30
0
11
61.341897657060457
21
-259.16256685887521
31
0
0
LINE
5
195
100
AcDbEntity
8
0
100
AcDbLine
10
83.033774148325961
20
-221.8284595780371
30
0
11
87.729639660687639
21
-249.04447579319398
31
0
0
LINE
5
196
100
AcDbEntity
8
0
100
AcDbLine
10
19.537971277903516
20
-184.31504934898786
30
0
11
83.033774148325961
21
-221.8284595780371
31
0
0
LINE
5
197
100
AcDbEntity
8
0
100
AcDbLine
10
19.537971277903516
20
-184.31504934898786
30
0
11
19.606577787798603
21
-144.86063798077782
31
0
0
LINE
5
198
100
AcDbEntity
8
0
100
AcDbLine
10
19.606577787798603
20
-144.86063798077782
30
0
11
44.182055076786838
21
-159.37986475546506
31
0
0
LINE
5
199
100
AcDbEntity
8
0
100
AcDbLine
10
44.182055076786838
20
-159.37986475546506
30
0
11
61.000735133114794
21
-154.00327928081165
31
0
0
LINE
5
200
100
AcDbEntity
8
0
100
AcDbLine
10
61.000735133114794
20
-154.00327928081165
30
0
11
59.000300787194675
21
-138.00009650546397
31
0
0
LINE
5
201
100
AcDbEntity
8
0
100
AcDbLine
10
59.000300787194675
20
-138.00009650546397
30
0
11
19.82103595153464
21
-114.85293137311615
31
0
0
LINE
5
202
100
AcDbEntity
8
0
100
AcDbLine
10
19.82103595153465
20
-108.9347072687298
30
0
11
19.82103595153464
21
-114.85293137311615
31
0
0
LINE
5
203
100
AcDbEntity
8
0
100
AcDbLine
10
48.500000000000007
20
-84.004464167090532
30
0
11
19.82103595153465
21
-108.9347072687298
31
0
0
LINE
5
204
100
AcDbEntity
8
0
100
AcDbLine
10
-19.821035951534679
20
-108.9347072687298
30
0
11
-19.821035951534679
21
-114.85293137311601
31
0
0
LINE
5
205
100
AcDbEntity
8
0
100
AcDbLine
10
-59.00030078719471
20
-138.000096505464
30
0
11
-19.821035951534679
21
-114.85293137311601
31
0
0
LINE
5
206
100
AcDbEntity
8
0
100
AcDbLine
10
-19.606577787798653
20
-144.86063798077788
30
0
11
-44.182055076786995
21
-159.37986475546504
31
0
0
LINE
5
207
100
AcDbEntity
8
0
100
AcDbLine
10
-44.182055076786995
20
-159.37986475546504
30
0
11
-61.000735133114851
21
-154.00327928081165
31
0
0
LINE
5
208
100
AcDbEntity
8
0
100
AcDbLine
10
-61.000735133114851
20
-154.00327928081165
30
0
11
-59.00030078719471
21
-138.000096505464
31
0
0
LINE
5
209
100
AcDbEntity
8
0
100
AcDbLine
10
-48.500000000000021
20
-84.004464167090532
30
0
11
-19.821035951534679
21
-108.9347072687298
31
0
0
LINE
5
210
100
AcDbEntity
8
0
100
AcDbLine
10
-7.3478807948841184e-15
20
-60
30
0
11
-22.500000000000007
21
-38.971143170299733
31
0
0
LINE
5
211
100
AcDbEntity
8
0
100
AcDbLine
10
-7.3478807948841184e-15
20
-60
30
0
11
22.5
21
-38.97114317029974
31
0
0
LINE
5
212
100
AcDbEntity
8
0
100
AcDbLine
10
259.80762113533154
20
-150.0000000000002
30
0
11
254.30982131634801
21
-124.1348854357245
31
0
0
LINE
5
213
100
AcDbEntity
8
0
100
AcDbLine
10
259.80762113533154
20
-150.0000000000002
30
0
11
234.65887494138224
21
-158.17132297397666
31
0
0
LINE
5
214
100
AcDbEntity
8
0
100
AcDbLine
10
193.28492450749056
20
-134.30052220660968
30
0
11
234.65887494138224
21
-158.17132297397666
31
0
0
LINE
5
215
100
AcDbEntity
8
0
100
AcDbLine
10
193.77041778123871
20
-182.70492511679726
30
0
11
193.28492450749056
21
-134.30052220660968
31
0
0
LINE
5
216
100
AcDbEntity
8
0
100
AcDbLine
10
171.81402287874081
20
-200.49833450760761
30
0
11
193.77041778123871
21
-182.70492511679726
31
0
0
LINE
5
217
100
AcDbEntity
8
0
100
AcDbLine
10
150.59219420278654
20
-182.82358757356857
30
0
11
171.81402287874081
21
-200.49833450760761
31
0
0
LINE
5
218
100
AcDbEntity
8
0
100
AcDbLine
10
149.85252939705418
20
-109.07790413956911
30
0
11
150.59219420278654
21
-182.82358757356857
31
0
0
LINE
5
219
100
AcDbEntity
8
0
100
AcDbLine
10
149.85252939705418
20
-109.07790413956911
30
0
11
115.64970360587509
21
-89.410113435898282
31
0
0
LINE
5
220
100
AcDbEntity
8
0
100
AcDbLine
10
212.95012622618594
20
-100.2393936887397
30
0
11
254.30982131634801
21
-124.1348854357245
31
0
0
LINE
5
221
100
AcDbEntity
8
0
100
AcDbLine
10
255.11231543829916
20
-76.457641742078209
30
0
11
212.95012622618594
21
-100.2393936887397
31
0
0
LINE
5
222
100
AcDbEntity
8
0
100
AcDbLine
10
259.54366253942845
20
-48.546141285586764
30
0
11
255.11231543829916
21
-76.457641742078209
31
0
0
LINE
5
223
100
AcDbEntity
8
0
100
AcDbLine
10
233.62596835111259
20
-39.004872004468737
30
0
11
259.54366253942845
21
-48.546141285586764
31
0
0
LINE
5
224
100
AcDbEntity
8
0
100
AcDbLine
10
169.39050067495768
20
-75.237145209418856
30
0
11
233.62596835111259
21
-39.004872004468737
31
0
0
LINE
5
225
100
AcDbEntity
8
0
100
AcDbLine
10
169.39050067495768
20
-75.237145209418856
30
0
11
135.25628139367382
21
-55.450524544879791
31
0
0
LINE
5
226
100
AcDbEntity
8
0
100
AcDbLine
10
135.25628139367382
20
-55.450524544879791
30
0
11
160.11803926835429
21
-41.427150289831971
31
0
0
LINE
5
227
100
AcDbEntity
8
0
100
AcDbLine
10
160.11803926835429
20
-41.427150289831971
30
0
11
163.87111968985005
21
-24.173453365602583
31
0
0
LINE
5
228
100
AcDbEntity
8
0
100
AcDbLine
10
163.87111968985005
20
-24.173453365602583
30
0
11
149.01173969203327
21
-17.904288940098475
31
0
0
LINE
5
229
100
AcDbEntity
8
0
100
AcDbLine
10
149.01173969203327
20
-17.904288940098475
30
0
11
109.37607424399664
21
-40.260945023204457
31
0
0
LINE
5
230
100
AcDbEntity
8
0
100
AcDbLine
10
104.25074182430868
20
-37.301832971011294
30
0
11
109.37607424399664
21
-40.260945023204457
31
0
0
LINE
5
231
100
AcDbEntity
8
0
100
AcDbLine
10
97.000000000000014
20
-4.4408920985006262e-14
30
0
11
104.25074182430868
21
-37.301832971011294
31
0
0
LINE
5
232
100
AcDbEntity
8
0
100
AcDbLine
10
84.429705872773994
20
-71.632874297718644
30
0
11
89.555038292461902
21
-74.591986349911778
31
0
0
LINE
5
233
100
AcDbEntity
8
0
100
AcDbLine
10
90.011438904838528
20
-120.09580756536566
30
0
11
89.555038292461902
21
-74.591986349911778
31
0
0
LINE
5
234
100
AcDbEntity
8
0
100
AcDbLine
10
115.64970360587509
20
-89.410113435898282
30
0
11
115.93598419156731
21
-117.95271446563332
31
0
0
LINE
5
235
100
AcDbEntity
8
0
100
AcDbLine
10
115.93598419156731
20
-117.95271446563332
30
0
11
102.8703845567351
21
-129.82982591520926
31
0
0
LINE
5
236
100
AcDbEntity
8
0
100
AcDbLine
10
102.8703845567351
20
-129.82982591520926
30
0
11
90.011438904838528
21
-120.09580756536566
31
0
0
LINE
5
237
100
AcDbEntity
8
0
100
AcDbLine
10
48.499999999999943
20
-84.004464167090589
30
0
11
84.429705872773994
21
-71.632874297718644
31
0
0
LINE
5
238
100
AcDbEntity
8
0
100
AcDbLine
10
51.961524227066313
20
-30.000000000000039
30
0
11
22.499999999999972
21
-38.971143170299769
31
0
0
LINE
5
239
100
AcDbEntity
8
0
100
AcDbLine
10
51.961524227066313
20
-30.000000000000039
30
0
11
45.000000000000007
21
-2.4424906541753444e-14
31
0
0
LINE
5
240
100
AcDbEntity
8
0
100
AcDbLine
10
259.80762113533171
20
149.9999999999998
30
0
11
234.65887494138235
21
158.17132297397632
31
0
0
LINE
5
241
100
AcDbEntity
8
0
100
AcDbLine
10
259.80762113533171
20
149.9999999999998
30
0
11
254.30982131634806
21
124.13488543572419
31
0
0
LINE
5
242
100
AcDbEntity
8
0
100
AcDbLine
10
212.95012622618546
20
100.23939368873945
30
0
11
254.30982131634806
21
124.13488543572419
31
0
0
LINE
5
243
100
AcDbEntity
8
0
100
AcDbLine
10
255.11231543829936
20
76.457641742077925
30
0
11
212.95012622618546
21
100.23939368873945
31
0
0
LINE
5
244
100
AcDbEntity
8
0
100
AcDbLine
10
259.54366253942874
20
48.546141285586415
30
0
11
255.11231543829936
21
76.457641742077925
31
0
0
LINE
5
245
100
AcDbEntity
8
0
100
AcDbLine
10
233.6259683511129
20
39.004872004468275
30
0
11
259.54366253942874
21
48.546141285586415
31
0
0
LINE
5
246
100
AcDbEntity
8
0
100
AcDbLine
10
169.39050067495774
20
75.237145209418713
30
0
11
233.6259683511129
21
39.004872004468275
31
0
0
LINE
5
247
100
AcDbEntity
8
0
100
AcDbLine
10
169.39050067495774
20
75.237145209418713
30
0
11
135.25628139367373
21
55.450524544879578
31
0
0
LINE
5
248
100
AcDbEntity
8
0
100
AcDbLine
10
193.28492450749076
20
134.30052220660986
30
0
11
234.65887494138235
21
158.17132297397632
31
0
0
LINE
5
249
100
AcDbEntity
8
0
100
AcDbLine
10
193.7704177812389
20
182.70492511679694
30
0
11
193.28492450749076
21
134.30052220660986
31
0
0
LINE
5
250
100
AcDbEntity
8
0
100
AcDbLine
10
171.81402287874093
20
200.49833450760718
30
0
11
193.7704177812389
21
182.70492511679694
31
0
0
LINE
5
251
100
AcDbEntity
8
0
100
AcDbLine
10
150.59219420278677
20
182.82358757356832
30
0
11
171.81402287874093
21
200.49833450760718
31
0
0
LINE
5
252
100
AcDbEntity
8
0
100
AcDbLine
10
149.85252939705424
20
109.07790413956897
30
0
11
150.59219420278677
21
182.82358757356832
31
0
0
LINE
5
253
100
AcDbEntity
8
0
100
AcDbLine
10
149.85252939705424
20
109.07790413956897
30
0
11
115.64970360587535
21
89.410113435898126
31
0
0
LINE
5
254
100
AcDbEntity
8
0
100
AcDbLine
10
115.64970360587535
20
89.410113435898126
30
0
11
115.93598419156751
21
117.95271446563311
31
0
0
LINE
5
255
100
AcDbEntity
8
0
100
AcDbLine
10
115.93598419156751
20
117.95271446563311
30
0
11
102.87038455673532
21
129.82982591520911
31
0
0
LINE
5
256
100
AcDbEntity
8
0
100
AcDbLine
10
102.87038455673532
20
129.82982591520911
30
0
11
90.011438904838684
21
120.09580756536552
31
0
0
LINE
5
257
100
AcDbEntity
8
0
100
AcDbLine
10
90.011438904838684
20
120.09580756536552
30
0
11
89.555038292462086
21
74.591986349911664
31
0
0
LINE
5
258
100
AcDbEntity
8
0
100
AcDbLine
10
84.429705872774079
20
71.63287429771853
30
0
11
89.555038292462086
21
74.591986349911664
31
0
0
LINE
5
259
100
AcDbEntity
8
0
100
AcDbLine
10
48.50000000000005
20
84.004464167090518
30
0
11
84.429705872774079
21
71.63287429771853
31
0
0
LINE
5
260
100
AcDbEntity
8
0
100
AcDbLine
10
104.25074182430873
20
37.301832971011137
30
0
11
109.37607424399665
21
40.260945023204265
31
0
0
LINE
5
261
100
AcDbEntity
8
0
100
AcDbLine
10
149.01173969203322
20
17.904288940098269
30
0
11
109.37607424399665
21
40.260945023204265
31
0
0
LINE
5
262
100
AcDbEntity
8
0
100
AcDbLine
10
135.25628139367373
20
55.450524544879578
30
0
11
160.11803926835432
21
41.427150289831651
31
0
0
LINE
5
263
100
AcDbEntity
8
0
100
AcDbLine
10
160.11803926835432
20
41.427150289831651
30
0
11
163.87111968984999
21
24.173453365602342
31
0
0
LINE
5
264
100
AcDbEntity
8
0
100
AcDbLine
10
163.87111968984999
20
24.173453365602342
30
0
11
149.01173969203322
21
17.904288940098269
31
0
0
LINE
5
265
100
AcDbEntity
8
0
100
AcDbLine
10
97
20
-8.8817841970012523e-14
30
0
11
104.25074182430873
21
37.301832971011137
31
0
0
LINE
5
266
100
AcDbEntity
8
0
100
AcDbLine
10
51.961524227066334
20
29.999999999999961
30
0
11
45
21
-3.9968028886505635e-14
31
0
0
LINE
5
267
100
AcDbEntity
8
0
100
AcDbLine
10
51.961524227066334
20
29.999999999999961
30
0
11
22.500000000000028
21
38.971143170299726
31
0
0
CIRCLE
5
268
100
AcDbEntity
8
0
100
AcDbCircle
10
35.500000000000007
20
61.487803668695129
30
0
40
3.9999999999999991
210
0
220
0
230
1
0
CIRCLE
5
269
100
AcDbEntity
8
0
100
AcDbCircle
10
51.440927260481857
20
228.23821022052181
30
0
40
4.0000000000000018
210
0
220
0
230
1
0
CIRCLE
5
270
100
AcDbEntity
8
0
100
AcDbCircle
10
0
20
260
30
0
40
3.9999999999999987
210
0
220
0
230
1
0
CIRCLE
5
271
100
AcDbEntity
8
0
100
AcDbCircle
10
0
20
260
30
0
40
3.9999999999999987
210
0
220
0
230
1
0
CIRCLE
5
272
100
AcDbEntity
8
0
100
AcDbCircle
10
0
20
85.132737786322934
30
0
40
3.9999999999999973
210
0
220
0
230
1
0
CIRCLE
5
273
100
AcDbEntity
8
0
100
AcDbCircle
10
0
20
122.92231803417104
30
0
40
3.9999999999999969
210
0
220
0
230
1
0
CIRCLE
5
274
100
AcDbEntity
8
0
100
AcDbCircle
10
0
20
168.00000250339508
30
0
40
4.0000000000000044
210
0
220
0
230
1
0
CIRCLE
5
275
100
AcDbEntity
8
0
100
AcDbCircle
10
0
20
214.0000031888485
30
0
40
4.0000000000000044
210
0
220
0
230
1
0
CIRCLE
5
276
100
AcDbEntity
8
0
100
AcDbCircle
10
-51.440927260481857
20
228.23821022052181
30
0
40
4.0000000000000018
210
0
220
0
230
1
0
CIRCLE
5
277
100
AcDbEntity
8
0
100
AcDbCircle
10
-225.16660498395402
20
130.00000000000003
30
0
40
3.9999999999999987
210
0
220
0
230
1
0
CIRCLE
5
278
100
AcDbEntity
8
0
100
AcDbCircle
10
-35.499999999999979
20
61.48780366869515
30
0
40
3.9999999999999991
210
0
220
0
230
1
0
CIRCLE
5
279
100
AcDbEntity
8
0
100
AcDbCircle
10
-73.727113616675041
20
42.566368893161474
30
0
40
3.9999999999999973
210
0
220
0
230
1
0
CIRCLE
5
280
100
AcDbEntity
8
0
100
AcDbCircle
10
-106.45385010966216
20
61.461159017085542
30
0
40
3.9999999999999969
210
0
220
0
230
1
0
CIRCLE
5
281
100
AcDbEntity
8
0
100
AcDbCircle
10
-145.49227000378943
20
84.000001251697554
30
0
40
4.0000000000000044
210
0
220
0
230
1
0
CIRCLE
5
282
100
AcDbEntity
8
0
100
AcDbCircle
10
-185.32943917149368
20
107.00000159442426
30
0
40
4.0000000000000044
210
0
220
0
230
1
0
CIRCLE
5
283
100
AcDbEntity
8
0
100
AcDbCircle
10
-171.93962453502405
20
158.66825491206566
30
0
40
4.0000000000000018
210
0
220
0
230
1
0
CIRCLE
5
284
100
AcDbEntity
8
0
100
AcDbCircle
10
-223.38055179550591
20
69.569955308456187
30
0
40
4.0000000000000018
210
0
220
0
230
1
0
CIRCLE
5
285
100
AcDbEntity
8
0
100
AcDbCircle
10
-225.1666049839541
20
-129.99999999999994
30
0
40
3.9999999999999987
210
0
220
0
230
1
0
CIRCLE
5
286
100
AcDbEntity
8
0
100
AcDbCircle
10
-71
20
3.1086244689504383e-14
30
0
40
3.9999999999999991
210
0
220
0
230
1
0
CIRCLE
5
287
100
AcDbEntity
8
0
100
AcDbCircle
10
-73.727113616675069
20
-42.566368893161446
30
0
40
3.9999999999999973
210
0
220
0
230
1
0
CIRCLE
5
288
100
AcDbEntity
8
0
100
AcDbCircle
10
-106.4538501096622
20
-61.461159017085492
30
0
40
3.9999999999999969
210
0
220
0
230
1
0
CIRCLE
5
289
100
AcDbEntity
8
0
100
AcDbCircle
10
-145.49227000378946
20
-84.000001251697512
30
0
40
4.0000000000000044
210
0
220
0
230
1
0
CIRCLE
5
290
100
AcDbEntity
8
0
100
AcDbCircle
10
-185.3294391714937
20
-107.00000159442419
30
0
40
4.0000000000000044
210
0
220
0
230
1
0
CIRCLE
5
291
100
AcDbEntity
8
0
100
AcDbCircle
10
-223.38055179550594
20
-69.569955308456088
30
0
40
4.0000000000000018
210
0
220
0
230
1
0
CIRCLE
5
292
100
AcDbEntity
8
0
100
AcDbCircle
10
-171.93962453502408
20
-158.66825491206558
30
0
40
4.0000000000000018
210
0
220
0
230
1
0
CIRCLE
5
293
100
AcDbEntity
8
0
100
AcDbCircle
10
-3.1840816777831183e-14
20
-260
30
0
40
3.9999999999999987
210
0
220
0
230
1
0
CIRCLE
5
294
100
AcDbEntity
8
0
100
AcDbCircle
10
-35.500000000000014
20
-61.487803668695129
30
0
40
3.9999999999999991
210
0
220
0
230
1
0
CIRCLE
5
295
100
AcDbEntity
8
0
100
AcDbCircle
10
-1.0425753483267129e-14
20
-85.132737786322934
30
0
40
3.9999999999999973
210
0
220
0
230
1
0
CIRCLE
5
296
100
AcDbEntity
8
0
100
AcDbCircle
10
-1.5053642332432054e-14
20
-122.92231803417104
30
0
40
3.9999999999999969
210
0
220
0
230
1
0
CIRCLE
5
297
100
AcDbEntity
8
0
100
AcDbCircle
10
-2.0574066532253011e-14
20
-168.00000250339508
30
0
40
4.0000000000000044
210
0
220
0
230
1
0
CIRCLE
5
298
100
AcDbEntity
8
0
100
AcDbCircle
10
-2.6207441892274672e-14
20
-214.0000031888485
30
0
40
4.0000000000000044
210
0
220
0
230
1
0
CIRCLE
5
299
100
AcDbEntity
8
0
100
AcDbCircle
10
-51.440927260481885
20
-228.23821022052181
30
0
40
4.0000000000000018
210
0
220
0
230
1
0
CIRCLE
5
300
100
AcDbEntity
8
0
100
AcDbCircle
10
51.440927260481828
20
-228.23821022052181
30
0
40
4.0000000000000018
210
0
220
0
230
1
0
CIRCLE
5
301
100
AcDbEntity
8
0
100
AcDbCircle
10
225.16660498395399
20
-130.00000000000017
30
0
40
3.9999999999999987
210
0
220
0
230
1
0
CIRCLE
5
302
100
AcDbEntity
8
0
100
AcDbCircle
10
35.499999999999943
20
-61.487803668695179
30
0
40
3.9999999999999991
210
0
220
0
230
1
0
CIRCLE
5
303
100
AcDbEntity
8
0
100
AcDbCircle
10
73.727113616675041
20
-42.566368893161517
30
0
40
3.9999999999999973
210
0
220
0
230
1
0
CIRCLE
5
304
100
AcDbEntity
8
0
100
AcDbCircle
10
106.45385010966214
20
-61.461159017085606
30
0
40
3.9999999999999969
210
0
220
0
230
1
0
CIRCLE
5
305
100
AcDbEntity
8
0
100
AcDbCircle
10
145.4922700037894
20
-84.000001251697654
30
0
40
4.0000000000000044
210
0
220
0
230
1
0
CIRCLE
5
306
100
AcDbEntity
8
0
100
AcDbCircle
10
185.32943917149365
20
-107.00000159442439
30
0
40
4.0000000000000044
210
0
220
0
230
1
0
CIRCLE
5
307
100
AcDbEntity
8
0
100
AcDbCircle
10
171.93962453502397
20
-158.66825491206581
30
0
40
4.0000000000000018
210
0
220
0
230
1
0
CIRCLE
5
308
100
AcDbEntity
8
0
100
AcDbCircle
10
223.38055179550591
20
-69.569955308456329
30
0
40
4.0000000000000018
210
0
220
0
230
1
0
CIRCLE
5
309
100
AcDbEntity
8
0
100
AcDbCircle
10
225.16660498395413
20
129.99999999999983
30
0
40
3.9999999999999987
210
0
220
0
230
1
0
CIRCLE
5
310
100
AcDbEntity
8
0
100
AcDbCircle
10
70.999999999999986
20
-6.6613381477509392e-14
30
0
40
3.9999999999999991
210
0
220
0
230
1
0
CIRCLE
5
311
100
AcDbEntity
8
0
100
AcDbCircle
10
73.727113616675084
20
42.56636889316141
30
0
40
3.9999999999999973
210
0
220
0
230
1
0
CIRCLE
5
312
100
AcDbEntity
8
0
100
AcDbCircle
10
106.45385010966221
20
61.461159017085443
30
0
40
3.9999999999999969
210
0
220
0
230
1
0
CIRCLE
5
313
100
AcDbEntity
8
0
100
AcDbCircle
10
145.49227000378949
20
84.000001251697427
30
0
40
4.0000000000000044
210
0
220
0
230
1
0
CIRCLE
5
314
100
AcDbEntity
8
0
100
AcDbCircle
10
185.32943917149373
20
107.00000159442411
30
0
40
4.0000000000000044
210
0
220
0
230
1
0
CIRCLE
5
315
100
AcDbEntity
8
0
100
AcDbCircle
10
223.38055179550597
20
69.569955308455974
30
0
40
4.0000000000000018
210
0
220
0
230
1
0
CIRCLE
5
316
100
AcDbEntity
8
0
100
AcDbCircle
10
171.93962453502419
20
158.66825491206549
30
0
40
4.0000000000000018
210
0
220
0
230
1
0
ENDSEC
0
SECTION
2
OBJECTS
0
DICTIONARY
5
C
100
AcDbDictionary
3
ACAD_GROUP
350
D
3
ACAD_MLINESTYLE
350
17
0
DICTIONARY
5
D
100
AcDbDictionary
0
DICTIONARY
5
1A
330
C
100
AcDbDictionary
0
DICTIONARY
5
17
100
AcDbDictionary
0
ENDSEC
0
EOF
